<svg width="27" height="27" viewBox="0 0 27 27" fill="none" xmlns="http://www.w3.org/2000/svg">
<path d="M24.6599 13.0014H1.95654C1.87082 13.0068 1.78485 13.0068 1.69914 13.0014C1.59488 12.9935 1.49781 12.9453 1.42856 12.867C1.35931 12.7887 1.32335 12.6864 1.32834 12.582C1.32751 12.4828 1.36411 12.3869 1.43084 12.3135C1.49757 12.2401 1.58951 12.1946 1.68834 12.186C1.77399 12.1788 1.86009 12.1788 1.94574 12.186H24.6599C24.5609 12.0816 24.5015 12.006 24.4385 11.9502L20.5559 8.05498C20.4814 7.98491 20.4161 7.90568 20.3615 7.81918C20.3242 7.74361 20.3116 7.65827 20.3253 7.57512C20.339 7.49198 20.3784 7.41523 20.438 7.35564C20.4976 7.29606 20.5743 7.25664 20.6575 7.24293C20.7406 7.22921 20.826 7.24189 20.9015 7.27918C20.9882 7.33492 21.068 7.40079 21.1391 7.47538L25.9199 12.24C26.1575 12.4776 26.1575 12.6936 25.9199 12.9294L21.1427 17.7084C21.0723 17.7825 20.9931 17.8478 20.9069 17.9028C20.8314 17.9401 20.746 17.9527 20.6629 17.939C20.5797 17.9253 20.503 17.8859 20.4434 17.8263C20.3838 17.7667 20.3444 17.69 20.3307 17.6068C20.317 17.5237 20.3296 17.4383 20.3669 17.3628C20.421 17.2754 20.4864 17.1955 20.5613 17.1252C21.8537 15.8292 23.1461 14.5344 24.4385 13.2408C24.5015 13.176 24.5627 13.1076 24.6599 13.0014Z" fill="#8B0C1D"/>
</svg>
