<svg width="26" height="11" viewBox="0 0 26 11" fill="none" xmlns="http://www.w3.org/2000/svg">
<path d="M2.34006 6.00132H25.0435C25.1292 6.00673 25.2151 6.00673 25.3009 6.00132C25.4051 5.99347 25.5022 5.94525 25.5714 5.86692C25.6407 5.7886 25.6766 5.68635 25.6717 5.58192C25.6725 5.48272 25.6359 5.38686 25.5692 5.31346C25.5024 5.24006 25.4105 5.19452 25.3117 5.18592C25.226 5.17872 25.1399 5.17872 25.0543 5.18592H2.34006C2.43906 5.08152 2.49846 5.00592 2.56146 4.95012L6.44406 1.05492C6.51857 0.984852 6.58389 0.90562 6.63846 0.819117C6.67575 0.743553 6.68843 0.658204 6.67472 0.575063C6.661 0.491922 6.62158 0.415167 6.562 0.355582C6.50241 0.295998 6.42566 0.25658 6.34252 0.242865C6.25938 0.22915 6.17403 0.241827 6.09846 0.279118C6.01176 0.334864 5.932 0.400726 5.86086 0.475317L1.08006 5.23992C0.842461 5.47752 0.842461 5.69352 1.08006 5.92932L5.85726 10.7083C5.92768 10.7824 6.00686 10.8477 6.09306 10.9027C6.16863 10.94 6.25397 10.9527 6.33712 10.939C6.42026 10.9253 6.49701 10.8858 6.5566 10.8263C6.61618 10.7667 6.6556 10.6899 6.66932 10.6068C6.68303 10.5236 6.67035 10.4383 6.63306 10.3627C6.57898 10.2753 6.51362 10.1954 6.43866 10.1251C5.14626 8.82912 3.85386 7.53432 2.56146 6.24072C2.49846 6.17592 2.43726 6.10752 2.34006 6.00132Z" fill="#191919"/>
</svg>
