<svg width="50" height="40" viewBox="0 0 50 40" fill="none" xmlns="http://www.w3.org/2000/svg">
<path d="M49.2676 38.0554H48.4344V21.5657C48.4344 21.1612 48.1064 20.8332 47.702 20.8332C47.2975 20.8332 46.9695 21.1612 46.9695 21.5657V34.9241H43.7374V29.394C43.7374 28.9895 43.4095 28.6616 43.005 28.6616H39.0908C38.6863 28.6616 38.3584 28.9895 38.3584 29.394V34.9241H35.1263V20.7324H35.9595C36.364 20.7324 36.6919 20.4045 36.6919 20V17.6012H46.9694V18.4344C46.9694 18.8389 47.2974 19.1668 47.7019 19.1668C48.1063 19.1668 48.4343 18.8389 48.4343 18.4344V17.6012H49.2675C49.672 17.6012 49.9999 17.2733 49.9999 16.8688C49.9999 16.4643 49.672 16.1364 49.2675 16.1364H38.5075L25.7324 8.62161V6.64163H30.4798C30.8843 6.64163 31.2122 6.3137 31.2122 5.90921V1.99505C31.2122 1.59055 30.8843 1.26262 30.4798 1.26262H25.7324V1.21223C25.7324 0.807742 25.4045 0.479813 25 0.479813C24.5955 0.479813 24.2676 0.807742 24.2676 1.21223V8.62161L11.4925 16.1364H0.732422C0.32793 16.1364 0 16.4643 0 16.8688C0 17.2733 0.32793 17.6012 0.732422 17.6012H1.56562V30.9595C1.56562 31.364 1.89355 31.6919 2.29805 31.6919C2.70254 31.6919 3.03047 31.364 3.03047 30.9595V17.6012H13.308V20C13.308 20.4045 13.6359 20.7324 14.0404 20.7324H14.8736V34.9241H11.6415V29.394C11.6415 28.9895 11.3136 28.6616 10.9091 28.6616H6.99502C6.59053 28.6616 6.2626 28.9895 6.2626 29.394V34.9241H3.03047V34.0907C3.03047 33.6862 2.70254 33.3582 2.29805 33.3582C1.89355 33.3582 1.56562 33.6862 1.56562 34.0907V38.0554H0.732422C0.32793 38.0554 0 38.3833 0 38.7878C0 39.1923 0.32793 39.5202 0.732422 39.5202H49.2676C49.6721 39.5202 50 39.1923 50 38.7878C50 38.3833 49.6721 38.0554 49.2676 38.0554ZM25.7324 2.72747H29.7474V5.17679H25.7324V2.72747ZM39.8233 30.1263H42.2727V34.924H39.8233V30.1263ZM25 9.89026L35.6184 16.1364H14.3816L25 9.89026ZM14.7729 19.2676V17.6012H35.2271V19.2676H14.7729ZM33.6614 20.7324V34.9241H31.995V20.7324H33.6614ZM30.5302 30.1264V34.9241H27.298V30.1264H30.5302ZM27.298 28.6615V26.2121H30.5302V28.6615H27.298ZM27.298 24.7474V20.7324H30.5302V24.7474H27.298ZM25.8332 20.7324V34.9241H24.1668V20.7324H25.8332ZM19.4698 28.6616V26.2122H22.702V28.6616H19.4698ZM22.702 30.1263V34.924H19.4698V30.1263H22.702ZM19.4698 24.7474V20.7324H22.702V24.7474H19.4698ZM18.005 20.7324V34.9241H16.3386V20.7324H18.005ZM7.72744 30.1263H10.1768V34.924H7.72744V30.1263ZM13.3079 38.0554H3.03047V36.389H13.3079V38.0554ZM35.2271 38.0554H14.7728V36.389H35.2271V38.0554ZM46.9695 38.0554H36.6919V36.389H46.9695V38.0554Z" fill="white"/>
</svg>
