<svg width="50" height="50" viewBox="0 0 50 50" fill="none" xmlns="http://www.w3.org/2000/svg">
<path d="M40.92 33.351H35.9094V35.0212H40.92V33.351Z" fill="white"/>
<path d="M34.2391 33.351H29.2285V35.0212H34.2391V33.351Z" fill="white"/>
<path d="M27.5582 33.351H22.5476V35.0212H27.5582V33.351Z" fill="white"/>
<path d="M49.2601 17.3196L32.7359 0.792915C32.2667 0.319204 31.6273 0.0530151 30.9605 0.0538502H30.953C30.2906 0.0541634 29.6561 0.320456 29.1918 0.792915L11.663 18.3192H2.5053C1.12164 18.3192 0 19.4408 0 20.8245V44.2073C0 45.591 1.12164 46.7126 2.5053 46.7126H14.8781L17.3701 49.2071C17.8393 49.6808 18.4787 49.947 19.1455 49.9461H19.1522C19.8148 49.9459 20.4497 49.6796 20.9143 49.2071L23.4112 46.7126H42.5901C43.9738 46.7126 45.0954 45.591 45.0954 44.2073V25.0284L49.2559 20.8679C49.7308 20.4031 49.9988 19.7669 50 19.1025C50.0025 18.433 49.7359 17.7906 49.2601 17.3196ZM38.6368 9.05791L29.3755 18.3192H22.2838L35.0909 5.51207L38.6368 9.05791ZM30.3743 1.97041C30.6919 1.64503 31.2132 1.63877 31.5387 1.95652C31.5434 1.96112 31.5481 1.96571 31.5526 1.97041L33.9101 4.33124L19.9213 18.3192H14.0247L30.3743 1.97041ZM19.7318 48.0296C19.579 48.1891 19.368 48.2795 19.1472 48.2801C18.9234 48.2796 18.7092 48.1894 18.5526 48.0296L17.2407 46.7126H21.0495L19.7318 48.0296ZM43.4252 44.2073C43.4252 44.6685 43.0513 45.0424 42.5901 45.0424H2.5053C2.04412 45.0424 1.6702 44.6685 1.6702 44.2073V32.5159H43.4252V44.2073ZM43.4252 30.8457H1.6702V25.8351H43.4252V30.8457ZM43.4252 24.1649H1.6702V20.8245C1.6702 20.3633 2.04412 19.9894 2.5053 19.9894H42.5901C43.0513 19.9894 43.4252 20.3633 43.4252 20.8245V24.1649ZM48.0792 19.6829L45.0954 22.6667V20.8245C45.0954 19.4408 43.9738 18.3192 42.5901 18.3192H31.7338L39.8142 10.2387L48.0759 18.5004C48.2363 18.6576 48.3266 18.8729 48.3264 19.0975C48.3262 19.318 48.2371 19.529 48.0792 19.6829Z" fill="white"/>
<path d="M8.0094 43.3947C8.13132 43.2893 8.24552 43.1751 8.35095 43.0531C9.45527 44.3394 11.3527 44.5838 12.7469 43.6193C13.6467 42.9902 14.1868 41.9648 14.1967 40.8669C14.1967 39.022 12.7011 37.5265 10.8563 37.5265C10.6905 37.5242 10.5249 37.5381 10.3619 37.5682L10.3402 37.5741C10.3318 37.5741 10.3235 37.5741 10.3159 37.5741C9.55089 37.7012 8.85514 38.0938 8.35095 38.6831C7.14423 37.2876 5.03466 37.1347 3.63932 38.3415C2.24386 39.5482 2.09093 41.6578 3.29776 43.0531C4.50448 44.4486 6.61394 44.6015 8.0094 43.3947ZM10.645 39.2142C10.7146 39.2009 10.7854 39.1951 10.8563 39.1967C11.7787 39.1967 12.5265 39.9444 12.5265 40.8669C12.5256 41.2202 12.4105 41.5638 12.1983 41.8464C12.1682 41.8873 12.1448 41.9299 12.1106 41.9725C12.1047 41.9792 12.0964 41.9834 12.0897 41.9901C11.7742 42.3384 11.3262 42.5372 10.8563 42.5371C9.93399 42.5213 9.199 41.7609 9.21476 40.8387C9.22875 40.0197 9.8344 39.3317 10.645 39.2142ZM5.84565 39.1967C6.76812 39.1967 7.51585 39.9444 7.51585 40.8669C7.51585 41.7893 6.76812 42.5371 5.84565 42.5371C4.92318 42.5371 4.17545 41.7893 4.17545 40.8669C4.17545 39.9444 4.92318 39.1967 5.84565 39.1967Z" fill="white"/>
</svg>
