<svg width="40" height="48" viewBox="0 0 40 48" fill="none" xmlns="http://www.w3.org/2000/svg">
<path d="M31.8565 11.2379L33.8327 7.80037C33.923 7.64321 33.9472 7.4566 33.9 7.2816C33.8527 7.1066 33.7379 6.95753 33.5808 6.86717L30.7866 5.26209C30.6294 5.17181 30.4428 5.14768 30.2678 5.195C30.0928 5.24232 29.9437 5.35723 29.8534 5.51444L27.8804 8.94842C26.1014 8.18105 24.2193 7.67908 22.2944 7.45858V5.36912H23.6812C23.8625 5.36912 24.0363 5.2971 24.1645 5.1689C24.2927 5.0407 24.3647 4.86683 24.3647 4.68553V1.46365C24.3648 1.37387 24.3471 1.28495 24.3128 1.20199C24.2785 1.11903 24.2281 1.04365 24.1646 0.980165C24.1012 0.916678 24.0258 0.866326 23.9428 0.831991C23.8599 0.797655 23.7709 0.780009 23.6812 0.78006H16.3187C16.2289 0.780009 16.14 0.797655 16.057 0.831991C15.974 0.866326 15.8987 0.916678 15.8352 0.980165C15.7717 1.04365 15.7213 1.11903 15.687 1.20199C15.6527 1.28495 15.635 1.37387 15.6351 1.46365V4.68553C15.6351 4.86683 15.7071 5.0407 15.8353 5.1689C15.9635 5.2971 16.1374 5.36912 16.3187 5.36912H17.7054V7.45662C15.7805 7.67713 13.8984 8.1791 12.1194 8.94647L10.1464 5.51248C10.1017 5.4346 10.0421 5.36629 9.97105 5.31145C9.89996 5.25661 9.81876 5.21633 9.73209 5.19289C9.64542 5.16945 9.55498 5.16333 9.46594 5.17487C9.37691 5.18641 9.29102 5.21538 9.21318 5.26014L6.41904 6.86522C6.2619 6.95557 6.14708 7.10464 6.09983 7.27965C6.05258 7.45465 6.07678 7.64125 6.16709 7.79842L8.14326 11.2379C4.76624 13.7335 2.26281 17.2312 0.989536 21.2326C-0.283738 25.234 -0.261928 29.5352 1.05186 33.5235C2.36565 37.5118 4.90442 40.9838 8.30658 43.4451C11.7087 45.9064 15.8008 47.2314 19.9999 47.2314C24.199 47.2314 28.2911 45.9064 31.6932 43.4451C35.0954 40.9838 37.6342 37.5118 38.9479 33.5235C40.2617 29.5352 40.2835 25.234 39.0103 21.2326C37.737 17.2312 35.2336 13.7335 31.8565 11.2379ZM30.6983 6.78475L32.3065 7.71092L30.7253 10.4633C30.2045 10.1305 29.6689 9.8216 29.1187 9.5367L30.6983 6.78475ZM17.0022 2.14725H22.9976V4.00194H17.0022V2.14725ZM19.0726 5.36912H20.9272V7.34451C20.6198 7.33006 20.3124 7.32029 19.9999 7.32029C19.6874 7.32029 19.38 7.32967 19.0726 7.34412V5.36912ZM7.69326 7.71092L9.30147 6.78709L10.8812 9.5367C10.3304 9.82108 9.79482 10.1299 9.27451 10.4633L7.69326 7.71092ZM19.9999 45.8527C16.3246 45.8527 12.7319 44.7629 9.67602 42.721C6.62015 40.6791 4.23839 37.7769 2.83195 34.3814C1.4255 30.9859 1.05753 27.2495 1.77456 23.6449C2.4916 20.0403 4.26145 16.7292 6.86028 14.1304C9.45912 11.5316 12.7702 9.76184 16.3749 9.04488C19.9796 8.32792 23.7159 8.69597 27.1114 10.1025C30.5068 11.509 33.409 13.8908 35.4508 16.9467C37.4926 20.0027 38.5824 23.5954 38.5823 27.2707C38.5766 32.1973 36.617 36.9204 33.1334 40.404C29.6497 43.8876 24.9265 45.8471 19.9999 45.8527Z" fill="white"/>
<path d="M33.4404 34.9613C34.7923 32.6086 35.5002 29.9411 35.4928 27.2277C35.4854 24.5142 34.7629 21.8507 33.3982 19.5054C33.3891 19.482 33.3787 19.4592 33.3669 19.4371C33.3548 19.4188 33.3418 19.4012 33.3279 19.3843C31.9829 17.1217 30.0874 15.2361 27.8177 13.9031C27.7991 13.8877 27.7795 13.8735 27.7591 13.8605C27.7369 13.849 27.7141 13.8388 27.6908 13.83C25.3382 12.478 22.6709 11.77 19.9576 11.7774C17.2443 11.7847 14.5808 12.5071 12.2357 13.8718C12.2119 13.8812 12.1887 13.8919 12.1661 13.9039C12.1482 13.916 12.1308 13.929 12.1142 13.9429C9.85123 15.2878 7.96525 17.1834 6.63177 19.4531C6.59937 19.49 6.57467 19.533 6.55911 19.5796C5.20718 21.9323 4.49924 24.5997 4.50665 27.313C4.51406 30.0264 5.23654 32.6899 6.6013 35.0351C6.61043 35.0586 6.62086 35.0815 6.63255 35.1039C6.64114 35.1187 6.65403 35.1296 6.66341 35.1429C8.00854 37.4109 9.90656 39.301 12.1802 40.6367C12.1993 40.6522 12.2193 40.6667 12.24 40.68C12.2572 40.6898 12.2759 40.6937 12.2935 40.7023C14.6503 42.0597 17.3238 42.7705 20.0436 42.7628C22.7633 42.755 25.4328 42.029 27.7818 40.6582C27.7986 40.65 27.8165 40.6464 27.8329 40.6367C27.8493 40.6269 27.8673 40.6113 27.8849 40.5976C30.153 39.2498 32.0423 37.3489 33.3763 35.0726C33.3868 35.0574 33.4001 35.046 33.4095 35.0296C33.4213 35.0076 33.4316 34.9847 33.4404 34.9613ZM27.7197 39.091L26.8411 37.5937C26.7495 37.4373 26.5994 37.3237 26.4239 37.2779C26.2485 37.2321 26.062 37.2579 25.9056 37.3496C25.7492 37.4412 25.6355 37.5913 25.5898 37.7668C25.544 37.9422 25.5698 38.1287 25.6615 38.2851L26.5411 39.7859C24.7279 40.739 22.7279 41.2832 20.6818 41.3804V39.6363C20.6818 39.455 20.6097 39.2811 20.4815 39.1529C20.3533 39.0247 20.1795 38.9527 19.9982 38.9527C19.8169 38.9527 19.643 39.0247 19.5148 39.1529C19.3866 39.2811 19.3146 39.455 19.3146 39.6363V41.3804C17.2958 41.2836 15.3218 40.7513 13.5279 39.8203L14.399 38.3152C14.4869 38.1584 14.5096 37.9734 14.4621 37.8C14.4146 37.6267 14.3008 37.479 14.1452 37.389C13.9897 37.299 13.8049 37.2738 13.631 37.319C13.457 37.3642 13.3078 37.4761 13.2157 37.6304L12.3458 39.1339C10.6838 38.0575 9.26465 36.6462 8.17903 34.9902L9.67786 34.1121C9.83344 34.02 9.94622 33.8701 9.99153 33.6951C10.0368 33.52 10.011 33.3342 9.91959 33.1782C9.82822 33.0222 9.67879 32.9088 9.50398 32.8627C9.32917 32.8167 9.14323 32.8417 8.98684 32.9324L7.48606 33.8121C6.53285 31.9989 5.98844 29.9989 5.89114 27.9527H7.63528C7.81658 27.9527 7.99046 27.8807 8.11866 27.7525C8.24685 27.6243 8.31887 27.4504 8.31887 27.2691C8.31887 27.0878 8.24685 26.9139 8.11866 26.7857C7.99046 26.6575 7.81658 26.5855 7.63528 26.5855H5.89114C5.98752 24.5663 6.51933 22.5917 7.45012 20.7972L8.95559 21.6679C9.11222 21.7541 9.29636 21.7755 9.46856 21.7275C9.64075 21.6795 9.7873 21.566 9.8768 21.4112C9.96631 21.2565 9.99163 21.0729 9.94736 20.8997C9.90309 20.7265 9.79275 20.5775 9.63997 20.4847L8.13684 19.6148C9.21318 17.9534 10.6242 16.5348 12.2798 15.4496L13.1583 16.9484C13.2504 17.104 13.4003 17.2168 13.5753 17.2621C13.7503 17.3074 13.9362 17.2815 14.0922 17.1901C14.2481 17.0988 14.3616 16.9493 14.4077 16.7745C14.4537 16.5997 14.4287 16.4138 14.338 16.2574L13.4583 14.7566C15.2715 13.8033 17.2715 13.259 19.3177 13.1621V14.9058C19.3177 15.0871 19.3897 15.261 19.5179 15.3892C19.6461 15.5174 19.82 15.5894 20.0013 15.5894C20.1826 15.5894 20.3565 15.5174 20.4847 15.3892C20.6129 15.261 20.6849 15.0871 20.6849 14.9058V13.1621C22.7041 13.2583 24.6786 13.79 26.4732 14.7207L25.6005 16.2265C25.5541 16.3043 25.5237 16.3905 25.5109 16.4801C25.4981 16.5697 25.5032 16.661 25.5259 16.7486C25.5487 16.8362 25.5886 16.9185 25.6434 16.9905C25.6982 17.0626 25.7668 17.123 25.8452 17.1684C25.9235 17.2137 26.0101 17.2431 26.0999 17.2547C26.1897 17.2663 26.2809 17.26 26.3682 17.236C26.4555 17.2121 26.5372 17.1711 26.6085 17.1153C26.6799 17.0596 26.7394 16.9902 26.7837 16.9113L27.6536 15.4062C29.3157 16.4829 30.7349 17.8944 31.8204 19.5507L30.3216 20.4289C30.2437 20.474 30.1755 20.5341 30.1209 20.6057C30.0664 20.6773 30.0264 20.7589 30.0035 20.846C29.9805 20.933 29.975 21.0238 29.9872 21.113C29.9994 21.2022 30.0292 21.2881 30.0747 21.3657C30.1202 21.4434 30.1806 21.5113 30.2524 21.5656C30.3242 21.6199 30.406 21.6594 30.4932 21.682C30.5804 21.7046 30.6711 21.7097 30.7602 21.6971C30.8494 21.6845 30.9351 21.6544 31.0126 21.6085L32.5138 20.7289C33.4667 22.5422 34.0109 24.5421 34.1083 26.5882H32.3642C32.1829 26.5882 32.009 26.6603 31.8808 26.7885C31.7526 26.9167 31.6806 27.0905 31.6806 27.2718C31.6806 27.4531 31.7526 27.627 31.8808 27.7552C32.009 27.8834 32.1829 27.9554 32.3642 27.9554H34.1083C34.0117 29.9741 33.4799 31.9481 32.5493 33.7421L31.0443 32.871C30.8873 32.7802 30.7007 32.7555 30.5255 32.8023C30.3503 32.8491 30.2009 32.9635 30.1101 33.1205C30.0193 33.2774 29.9945 33.464 30.0413 33.6392C30.0881 33.8144 30.2025 33.9638 30.3595 34.0546L31.8626 34.9246C30.7864 36.5864 29.3754 38.0054 27.7197 39.091Z" fill="white"/>
<path d="M30.31 27.2707C30.31 27.0894 30.238 26.9155 30.1098 26.7873C29.9816 26.6591 29.8077 26.5871 29.6264 26.5871H23.0444C22.9139 26.0108 22.6229 25.4832 22.2051 25.0653C21.7873 24.6475 21.2598 24.3564 20.6835 24.2258V17.6441C20.6835 17.4628 20.6114 17.289 20.4832 17.1608C20.355 17.0326 20.1812 16.9605 19.9999 16.9605C19.8186 16.9605 19.6447 17.0326 19.5165 17.1608C19.3883 17.289 19.3163 17.4628 19.3163 17.6441V24.2258C18.7709 24.3479 18.2683 24.6143 17.861 24.997C17.4537 25.3797 17.1566 25.8647 17.0007 26.4015C16.8449 26.9382 16.836 27.5069 16.9751 28.0483C17.1141 28.5896 17.3959 29.0837 17.7911 29.4789C18.1863 29.8741 18.6803 30.156 19.2217 30.2951C19.763 30.4342 20.3317 30.4254 20.8685 30.2696C21.4052 30.1138 21.8903 29.8168 22.2731 29.4095C22.6558 29.0022 22.9222 28.4997 23.0444 27.9543H29.6264C29.8077 27.9542 29.9815 27.8821 30.1097 27.754C30.2379 27.6258 30.3099 27.452 30.31 27.2707V27.2707ZM19.9999 29.0258C19.6526 29.0259 19.3132 28.923 19.0244 28.7301C18.7357 28.5372 18.5106 28.2631 18.3777 27.9423C18.2448 27.6215 18.21 27.2685 18.2777 26.9279C18.3454 26.5874 18.5126 26.2745 18.7582 26.029C19.0037 25.7835 19.3165 25.6163 19.6571 25.5485C19.9977 25.4808 20.3507 25.5156 20.6714 25.6485C20.9922 25.7815 21.2664 26.0065 21.4593 26.2953C21.6521 26.584 21.755 26.9235 21.7549 27.2707C21.7542 27.736 21.5691 28.1819 21.2401 28.5109C20.9111 28.8399 20.4651 29.0251 19.9999 29.0258Z" fill="white"/>
</svg>
