<svg width="50" height="50" viewBox="0 0 50 50" fill="none" xmlns="http://www.w3.org/2000/svg">
<path d="M22.7051 32.1289H21.1426V33.5938H22.7051V32.1289Z" fill="white"/>
<path d="M25.8301 32.1289H24.2676V33.5938H25.8301V32.1289Z" fill="white"/>
<path d="M28.9551 32.1289H27.3926V33.5938H28.9551V32.1289Z" fill="white"/>
<path d="M49.9512 36.7188V32.1289H39.0137V30.4688H41.3574V25.8789H33.5449V21.875H35.8887V17.2852H33.562C33.2099 13.0859 29.9316 9.80771 25.7324 9.45557V7.03125H31.9824V0.878906H25.7324V0H24.2676V9.45557C20.166 9.80771 16.8878 13.0859 16.5356 17.2852H14.1113V21.875H16.4551V25.8789H8.64258V30.4688H10.9863V32.1289H0.0488281V36.7188H1.61133V45.4102H0.0488281V50H49.9512V45.4102H48.3887V36.7188H49.9512ZM48.4863 33.5938V35.2539H39.0137V33.5938H48.4863ZM42.1387 45.4102V36.7188H43.7988V45.4102H42.1387ZM39.0137 36.7188H40.6738V45.4102H39.0137V36.7188ZM32.0801 25.8789H30.4199V21.875H32.0801V25.8789ZM22.7051 21.875V25.8789H21.0449V21.875H22.7051ZM24.1699 21.875H25.8301V25.8789H24.1699V21.875ZM27.2949 21.875H28.9551V25.8789H27.2949V21.875ZM30.5176 2.34375V5.56641H25.7324V2.34375H30.5176ZM25.0488 10.9375C28.7055 10.9375 31.7233 13.6719 32.091 17.2852H18.0065C18.3743 13.6719 21.3922 10.9375 25.0488 10.9375ZM15.5762 18.75H34.4238V20.4102H15.5762V18.75ZM17.9199 21.875H19.5801V25.8789H17.9199V21.875ZM10.1074 27.3438H39.8926V29.0039H10.1074V27.3438ZM37.5488 30.4688V45.4102H31.2012V39.8438H33.5449V35.2539H16.4551V39.8438H18.7988V45.4102H12.4512V30.4688H37.5488ZM17.9199 38.3789V36.7188H32.0801V38.3789H17.9199ZM21.9238 39.8438V45.4102H20.2637V39.8438H21.9238ZM23.3887 39.8438H26.6113V45.4102H23.3887V39.8438ZM28.0762 39.8438H29.7363V45.4102H28.0762V39.8438ZM7.86133 36.7188V43.75H9.32617V36.7188H10.9863V45.4102H6.20117V36.7188H7.86133ZM1.51367 33.5938H10.9863V35.2539H1.51367V33.5938ZM3.07617 36.7188H4.73633V45.4102H3.07617V36.7188ZM48.4863 48.5352H1.51367V46.875H48.4863V48.5352ZM46.9238 45.4102H45.2637V36.7188H46.9238V45.4102Z" fill="white"/>
</svg>
