<svg width="50" height="36" viewBox="0 0 50 36" fill="none" xmlns="http://www.w3.org/2000/svg">
<path d="M48.3022 4.0437H46.1337V2.41021C46.1337 1.47398 45.3721 0.712357 44.4359 0.712357H41.0176C40.7917 0.712357 40.5783 0.816458 40.4393 0.994388L38.0569 4.0437H14.6733L12.291 0.994388C12.152 0.816458 11.9386 0.712357 11.7127 0.712357H1.69775C0.761621 0.712357 0 1.47398 0 2.41021V4.77759V12.2591C0 12.4776 0.100293 12.6871 0.267383 12.8256C0.297168 12.8502 3.23203 15.3069 3.23203 18.185C3.23203 19.6251 2.82227 20.9691 2.34785 22.5253C1.5374 25.1836 0.618848 28.1965 1.43584 32.7035C1.70732 34.2008 3.01074 35.2877 4.53516 35.2877H7.98984C8.39512 35.2877 8.72373 34.959 8.72373 34.5538C8.72373 34.1485 8.39512 33.8199 7.98984 33.8199H4.53506C3.7208 33.8199 3.02471 33.2402 2.87998 32.4416C2.12637 28.2844 2.98984 25.4522 3.75176 22.9533C4.23936 21.3542 4.6998 19.8437 4.6998 18.1849C4.6998 16.0352 3.48789 14.1672 2.48936 12.9929H36.9472C37.3524 12.9929 37.6811 12.6643 37.6811 12.259C37.6811 11.8538 37.3524 11.5252 36.9472 11.5252H21.7461V5.51138H38.4137C38.4139 5.51138 38.4141 5.51148 38.4143 5.51148C38.4146 5.51148 38.4148 5.51138 38.4151 5.51138H44.6659V11.5252H39.8825C39.4772 11.5252 39.1486 11.8538 39.1486 12.259C39.1486 12.6643 39.4772 12.9929 39.8825 12.9929H44.6659V15.7815C44.6659 15.9084 44.5627 16.0116 44.4358 16.0116H18.1932C15.1972 16.0116 12.5519 17.913 11.6106 20.7432C9.69961 26.4897 12.7534 30.076 14.1552 31.3512C14.5315 31.6936 14.6977 32.2144 14.5888 32.7105C14.4477 33.3534 13.8445 33.82 13.1546 33.82H10.9252C10.5199 33.82 10.1913 34.1486 10.1913 34.5539C10.1913 34.9591 10.5199 35.2878 10.9252 35.2878H13.1546C14.5286 35.2878 15.7347 34.3362 16.0225 33.0252C16.2436 32.0177 15.9065 30.9604 15.1429 30.2657C14.4755 29.6586 13.5601 28.6245 12.9882 27.1457C12.8002 26.6595 12.6649 26.1593 12.5787 25.6468H18.3029C22.2399 25.6468 25.4429 22.4439 25.4429 18.5069V17.4794H44.4358C45.3721 17.4794 46.1336 16.7178 46.1336 15.7817V12.9931H48.3022C49.2384 12.9931 49.9999 12.2315 49.9999 11.2953V5.74175C50 4.80533 49.2384 4.0437 48.3022 4.0437ZM18.4161 17.4793C18.5145 18.9595 19.0331 20.4276 19.4967 21.4749C17.9282 21.0672 16.9572 19.8026 16.6041 17.7133C17.11 17.5611 17.6438 17.4793 18.1931 17.4793H18.4161ZM23.9752 18.5067C23.9752 21.6343 21.4307 24.179 18.3029 24.179H12.4705C12.4863 23.2231 12.6628 22.2304 13.0034 21.2063C13.4063 19.9947 14.2069 19 15.2328 18.3435C15.7591 20.7941 17.1367 22.4 19.1823 22.9093C19.301 22.9388 19.4203 22.9533 19.5383 22.9533C19.9603 22.9533 20.3638 22.769 20.6441 22.4344C21.0016 22.0081 21.0827 21.4271 20.8558 20.9185C20.5197 20.1654 19.9988 18.8129 19.8885 17.4792H23.9753V18.5067H23.9752ZM41.3755 2.18003H44.4359C44.5628 2.18003 44.666 2.28326 44.666 2.41011V4.04361H39.9195L41.3755 2.18003ZM1.46768 11.5252V5.51138H4.20342C4.60869 5.51138 4.9373 5.18277 4.9373 4.77749C4.9373 4.37222 4.60869 4.04361 4.20342 4.04361H1.46768V2.41021C1.46768 2.28335 1.5709 2.18013 1.69775 2.18013H11.3547L12.8106 4.0437H7.13877C6.7335 4.0437 6.40488 4.37232 6.40488 4.77759C6.40488 5.18286 6.7335 5.51148 7.13877 5.51148H14.3149C14.3152 5.51148 14.3155 5.51158 14.3158 5.51158C14.316 5.51158 14.3162 5.51148 14.3164 5.51148H20.2784V11.5252H1.46768V11.5252ZM48.5323 11.2951C48.5323 11.4219 48.4291 11.5252 48.3022 11.5252H46.1337V5.51138H48.3022C48.4291 5.51138 48.5323 5.6146 48.5323 5.74156V11.2951Z" fill="white"/>
<path d="M4.20337 6.987C3.7981 6.987 3.46948 7.31561 3.46948 7.72089V9.17157C3.46948 9.57684 3.798 9.90545 4.20337 9.90545C4.60864 9.90545 4.93726 9.57684 4.93726 9.17157V7.72089C4.93726 7.31561 4.60864 6.987 4.20337 6.987Z" fill="white"/>
<path d="M7.56421 6.987C7.15894 6.987 6.83032 7.31561 6.83032 7.72089V9.17157C6.83032 9.57684 7.15894 9.90545 7.56421 9.90545C7.96948 9.90545 8.2981 9.57684 8.2981 9.17157V7.72089C8.2981 7.31561 7.96948 6.987 7.56421 6.987Z" fill="white"/>
<path d="M10.925 6.987C10.5198 6.987 10.1912 7.31561 10.1912 7.72089V9.17157C10.1912 9.57684 10.5198 9.90545 10.925 9.90545C11.3303 9.90545 11.6589 9.57684 11.6589 9.17157V7.72089C11.6589 7.31561 11.3303 6.987 10.925 6.987Z" fill="white"/>
<path d="M14.2859 6.987C13.8806 6.987 13.552 7.31561 13.552 7.72089V9.17157C13.552 9.57684 13.8806 9.90545 14.2859 9.90545C14.6912 9.90545 15.0198 9.57684 15.0198 9.17157V7.72089C15.0198 7.31561 14.6912 6.987 14.2859 6.987Z" fill="white"/>
<path d="M17.647 6.987C17.2417 6.987 16.9131 7.31561 16.9131 7.72089V9.17157C16.9131 9.57684 17.2417 9.90545 17.647 9.90545C18.0522 9.90545 18.3809 9.57684 18.3809 9.17157V7.72089C18.3808 7.31561 18.0522 6.987 17.647 6.987Z" fill="white"/>
</svg>
