<svg width="50" height="50" viewBox="0 0 50 50" fill="none" xmlns="http://www.w3.org/2000/svg">
<path d="M49.9117 20.5733C49.9117 16.4037 48.288 12.4837 45.3396 9.53535C41.9316 6.12725 37.2514 4.5083 32.469 5.07217C32.2172 4.58604 31.8139 4.18506 31.3104 3.94004L27.2061 1.94297C26.8573 1.77324 26.468 1.6835 26.0806 1.6835C25.393 1.6835 24.7465 1.95117 24.2604 2.4373L22.0327 4.66494L21.2487 3.88096C20.4252 3.05742 19.178 2.91035 18.2025 3.43857L15.5187 0.754785C15.5184 0.754492 15.5181 0.754102 15.5178 0.753809C15.0316 0.267676 14.3854 0 13.6979 0C13.0104 0 12.3643 0.267676 11.8782 0.753809L9.27441 3.35752C8.78828 3.84365 8.52061 4.48984 8.52061 5.17734C8.52061 5.61318 8.62852 6.03223 8.83115 6.40459L6.4916 8.74414C6.11924 8.5416 5.7002 8.43369 5.26436 8.43369C4.57695 8.43369 3.93066 8.70137 3.44453 9.1874L0.84082 11.7911C-0.162598 12.7945 -0.162598 14.4272 0.84082 15.4307L3.48232 18.0722C3.19414 18.4951 3.03877 18.994 3.03877 19.5171C3.03877 20.2046 3.30645 20.8508 3.79258 21.3368L4.57656 22.1208L2.34893 24.3484C1.57324 25.124 1.37451 26.3079 1.85449 27.2943L4.48584 32.702C4.7417 33.2279 4.87646 33.8027 4.87559 34.3647C4.86885 38.5441 6.49229 42.4731 9.44697 45.4279C12.3954 48.3763 16.3154 50 20.4852 50C24.6549 50 28.5748 48.3763 31.5232 45.4279C34.0382 42.9129 35.6166 39.6136 36.0018 36.0915C39.5285 35.7119 42.7959 34.1553 45.3396 31.6114C48.288 28.6631 49.9117 24.7431 49.9117 20.5733ZM32.0041 8.07393C32.4269 7.65117 32.6833 7.09736 32.7431 6.51484C37.0406 6.03906 41.2399 7.50732 44.3037 10.5712C46.9754 13.2429 48.4469 16.7951 48.4469 20.5734C48.4469 23.5361 47.5419 26.3596 45.8632 28.7287C45.7391 28.4543 45.5648 28.1973 45.3396 27.972C45.007 27.6394 44.5995 27.4092 44.1551 27.2969C47.0332 23.0813 46.9438 17.3718 43.7 13.2274C43.4506 12.9089 42.9902 12.8527 42.6718 13.1021C42.3532 13.3515 42.2972 13.8118 42.5465 14.1303C45.7993 18.286 45.4355 24.2366 41.7001 27.9719C40.0626 29.6094 37.9735 30.6354 35.7103 30.9372C35.062 28.0632 33.6229 25.4513 31.5232 23.3518C29.4248 21.2534 26.812 19.8136 23.9386 19.1651C24.2339 16.9727 25.2216 14.8564 26.9031 13.1749C30.6386 9.43955 36.5895 9.07578 40.7451 12.3288C41.0637 12.5782 41.524 12.5221 41.7733 12.2035C42.0227 11.885 41.9666 11.4246 41.648 11.1753C38.5336 8.7374 34.5352 8.08115 30.9511 9.12695L32.0041 8.07393ZM31.8395 30.7419C31.2639 28.9442 30.2604 27.2965 28.9195 25.9556C27.5792 24.6151 25.9323 23.612 24.1355 23.0364C23.9471 22.2526 23.8502 21.4513 23.8444 20.6493C26.357 21.2605 28.6419 22.5421 30.4874 24.3876C32.3339 26.234 33.6146 28.5177 34.2255 31.0303C33.4112 31.0246 32.612 30.9268 31.8395 30.7419ZM30.0409 30.1331C28.8854 29.6189 27.823 28.8919 26.9031 27.9719C25.9712 27.0398 25.2528 25.9741 24.7466 24.8361C25.9098 25.3546 26.9768 26.0846 27.8837 26.9914C28.7917 27.8994 29.5223 28.9681 30.0409 30.1331ZM25.296 3.47305C25.5056 3.26357 25.7841 3.14824 26.0805 3.14824C26.2495 3.14824 26.4126 3.18584 26.5651 3.26006L30.6693 5.25713C30.9959 5.41592 31.2175 5.7125 31.2776 6.07061C31.3377 6.42871 31.2249 6.78135 30.9682 7.03809L25.8672 12.1391C21.2166 16.7897 21.2166 24.3569 25.8672 29.0076C28.1169 31.2573 31.1115 32.4962 34.3005 32.496H34.3017C37.4913 32.4957 40.4866 31.2568 42.7358 29.0076C42.9452 28.7981 43.2236 28.6829 43.5197 28.6829C43.8158 28.6829 44.0943 28.7982 44.3036 29.0076C44.7359 29.4398 44.7359 30.1433 44.3036 30.5756C41.632 33.2473 38.0798 34.7187 34.3014 34.7187C30.5229 34.7187 26.9709 33.2473 24.2991 30.5756C22.2413 28.5178 20.8971 25.9381 20.3875 23.1349C20.384 23.1081 20.3792 23.0819 20.373 23.0562C20.229 22.2373 20.1555 21.3997 20.1568 20.5506C20.1581 19.7672 19.9723 18.9697 19.6194 18.2446L16.9881 12.8369C16.7813 12.412 16.8669 11.9021 17.2011 11.5679L25.296 3.47305ZM8.21611 18.4813L7.43213 17.6974C6.67412 16.9394 5.55703 16.7544 4.62334 17.1416L3.51973 16.038C3.87705 15.9118 4.20449 15.7065 4.48037 15.4307L7.08418 12.8269C7.90771 12.0033 8.05479 10.7563 7.52656 9.78066L9.86699 7.44023C10.2394 7.64287 10.6585 7.75078 11.0942 7.75078C11.7816 7.75078 12.4279 7.48311 12.914 6.99697L15.5177 4.39326C15.7982 4.1127 16.0002 3.78291 16.1239 3.43145L17.1658 4.47334C16.9632 4.8457 16.8553 5.26475 16.8553 5.70059C16.8553 6.38809 17.1229 7.03428 17.6091 7.52031L18.3931 8.3043L16.1654 10.5319C15.3897 11.3075 15.191 12.4914 15.671 13.4778L17.8589 17.9742C17.744 17.8925 17.6225 17.8189 17.4937 17.7563L13.3895 15.7593C12.403 15.2794 11.2192 15.478 10.4437 16.2536L8.21611 18.4813ZM18.1876 21.8904C18.4048 21.6732 18.578 21.4214 18.7036 21.149C18.721 21.6316 18.7599 22.1104 18.8203 22.5841C18.2472 22.6641 17.6835 22.7849 17.1329 22.9451L18.1876 21.8904ZM19.4289 4.59199C19.725 4.59199 20.0034 4.70732 20.2129 4.9167L20.9969 5.70068L19.4289 7.26865L18.6449 6.48457C18.4354 6.2752 18.3202 5.99678 18.3202 5.70068C18.3202 5.40459 18.4355 5.12617 18.6449 4.9167C18.8543 4.70723 19.1327 4.59199 19.4289 4.59199ZM10.3103 4.39336L12.9141 1.78955C13.1234 1.58008 13.4019 1.46484 13.6979 1.46484C13.994 1.46484 14.2725 1.58018 14.4819 1.78955C14.6914 1.99893 14.8066 2.27744 14.8066 2.57354C14.8066 2.86963 14.6913 3.14805 14.4819 3.35752L11.8782 5.96123C11.6688 6.1707 11.3903 6.28594 11.0942 6.28594C10.798 6.28594 10.5196 6.17061 10.3103 5.96113C10.1008 5.75176 9.98555 5.47334 9.98555 5.17725C9.98555 4.88115 10.1008 4.60273 10.3103 4.39336ZM1.87666 12.827L4.48037 10.2231C4.68984 10.0138 4.96826 9.89844 5.26436 9.89844C5.56045 9.89844 5.83887 10.0138 6.04834 10.2232C6.25781 10.4326 6.37305 10.711 6.37305 11.0071C6.37305 11.3032 6.25771 11.5816 6.04834 11.7911L3.44453 14.3949C3.23516 14.6043 2.95674 14.7196 2.66055 14.7196C2.36436 14.7196 2.08594 14.6043 1.87656 14.3949C1.66709 14.1854 1.55186 13.907 1.55186 13.6109C1.55195 13.3147 1.66719 13.0363 1.87666 12.827ZM4.82842 20.3011C4.61895 20.0917 4.50371 19.8133 4.50371 19.5172C4.50371 19.2211 4.61904 18.9427 4.82842 18.7332C5.03779 18.5237 5.31631 18.4085 5.6124 18.4085C5.9085 18.4085 6.18691 18.5238 6.39639 18.7332L7.18037 19.5172L5.6124 21.0852L4.82842 20.3011ZM10.4828 44.3921C7.80547 41.7146 6.33438 38.1544 6.34053 34.3671C6.3418 33.5836 6.15596 32.7862 5.80312 32.0611L3.17178 26.6534C2.96504 26.2285 3.05059 25.7186 3.38477 25.3844L11.4796 17.2896C11.8137 16.9554 12.3237 16.8697 12.7486 17.0767L16.8529 19.0737C17.1795 19.2325 17.4012 19.5291 17.4612 19.8872C17.5213 20.2453 17.4085 20.5979 17.1518 20.8547L13.0141 24.9924C12.728 25.2784 12.728 25.7422 13.0141 26.0281C13.1719 26.1859 13.3839 26.2563 13.5902 26.2398C13.6148 26.2424 13.6396 26.2439 13.6643 26.2439C13.8201 26.2439 13.9773 26.1943 14.1104 26.0919C15.5582 24.9778 17.2629 24.2719 19.0734 24.0281C19.7139 26.8784 21.147 29.4948 23.2635 31.6113C25.3794 33.7272 27.9958 35.1607 30.8457 35.8017C30.5393 38.0626 29.5023 40.1695 27.8836 41.7883C23.8042 45.8678 17.1662 45.8678 13.0866 41.7883C9.35127 38.0529 8.9874 32.1021 12.2404 27.9465C12.4897 27.6279 12.4337 27.1676 12.1151 26.9183C11.7967 26.6689 11.3363 26.725 11.0869 27.0436C7.37803 31.7816 7.79248 38.5657 12.0508 42.8241C14.3764 45.1497 17.4303 46.3124 20.4851 46.3121C23.5392 46.3119 26.5943 45.1492 28.9193 42.8241C29.1287 42.6147 29.4071 42.4994 29.7032 42.4994C29.9993 42.4994 30.2778 42.6147 30.4871 42.8241C30.9194 43.2563 30.9194 43.9598 30.4871 44.3921C27.8157 47.0638 24.2635 48.5352 20.4852 48.5352C16.7068 48.5352 13.1546 47.0638 10.4828 44.3921ZM32.0449 42.5409C31.9209 42.2681 31.7473 42.0125 31.5231 41.7884C31.1899 41.4552 30.7815 41.2247 30.3361 41.1126C31.3633 39.6054 32.0357 37.8751 32.2913 36.0554C32.9527 36.1398 33.6237 36.1835 34.3015 36.1835C34.3732 36.1835 34.4448 36.1818 34.5164 36.1809C34.224 38.4769 33.3708 40.6604 32.0449 42.5409Z" fill="white"/>
</svg>
