<svg width="38" height="50" viewBox="0 0 38 50" fill="none" xmlns="http://www.w3.org/2000/svg">
<path d="M10.031 50H20.1153C23.5067 50 26.635 48.0477 28.279 44.8893L37.2702 27.621C37.4491 27.2778 37.3639 26.8563 37.0657 26.6099L36.1414 25.8447C35.074 24.8525 33.6433 24.3465 32.1897 24.4466C30.7056 24.5555 29.3336 25.2765 28.402 26.4367L27.3435 27.7255L27.3306 8.94861C27.329 6.66233 25.5475 4.80244 23.3822 4.80244C22.5326 4.80244 21.8028 5.08898 21.0826 5.57485V4.12889C21.0826 1.8414 19.359 0 17.1928 0H17.1201C15.1517 0 13.5169 1.52754 13.2348 3.52487C12.5729 3.00122 11.7538 2.71508 10.9095 2.71227C8.74337 2.71187 6.98797 4.56854 6.98797 6.85643V11.0187C6.37069 10.5316 5.54202 10.2881 4.69205 10.2881H4.62292C2.46243 10.2881 0.699795 12.123 0.69457 14.4045C0.680907 20.3217 0.689346 30.7565 0.698187 40.0917C0.703412 45.5665 4.89017 50 10.031 50ZM2.34066 14.4085C2.34388 13.0321 3.36786 11.9342 4.62292 11.9342H4.69205C5.95032 11.9342 6.98797 13.0136 6.98797 14.394V25.217C6.98797 25.6715 7.35649 26.0401 7.81102 26.0401C8.26594 26.0401 8.63406 25.6715 8.63406 25.217V6.85643C8.63406 5.47639 9.63554 4.35314 10.9011 4.35314C12.1597 4.35314 13.1608 5.47639 13.1608 6.85643V25.2178C13.1608 25.6723 13.5293 26.0409 13.9839 26.0409C14.4388 26.0409 14.8069 25.6723 14.8069 25.2178V4.1301C14.8069 2.74965 15.8614 1.64609 17.1201 1.64609H17.1928C18.4511 1.64609 19.4751 2.75889 19.4751 4.13854V8.83126C19.4739 8.87265 19.4735 8.91244 19.4735 8.95464C19.4735 8.97272 19.4735 8.9896 19.4751 9.00728C19.4751 11.093 19.4743 13.352 19.4739 15.5032C19.4727 20.4925 19.4719 24.8007 19.4739 25.221C19.4755 25.6756 19.8452 26.0429 20.2998 26.0413C20.7543 26.0397 21.1216 25.6699 21.12 25.2154C21.1184 24.7979 21.1192 20.4905 21.12 15.5032C21.12 13.2989 21.1208 10.9817 21.1212 8.85336C21.169 7.51873 22.1737 6.44933 23.4027 6.44933C24.6597 6.44933 25.6837 7.57137 25.6845 8.95062L25.6994 30.0235C25.6998 30.3711 25.918 30.6809 26.2451 30.7979C26.5723 30.9152 26.9376 30.814 27.1582 30.5455L29.6744 27.4828C30.3202 26.6734 31.2726 26.1691 32.305 26.0899C33.315 26.0232 34.3072 26.3792 35.0438 27.0729C35.0543 27.0825 35.0647 27.0918 35.0756 27.1006L35.5036 27.4555L26.819 44.1294C25.4595 46.7412 22.8907 48.3539 20.1153 48.3539H10.031C5.79681 48.3539 2.3487 44.6582 2.34428 40.0901C2.33544 30.7561 2.327 20.3229 2.34066 14.4085Z" fill="#8B0C1D"/>
</svg>
