<svg width="20" height="20" viewBox="0 0 20 20" fill="none" xmlns="http://www.w3.org/2000/svg">
<path d="M2.88906 1.01562C1.51417 1.01562 0.615234 1.91845 0.615234 3.10509C0.615234 4.26552 1.48739 5.19409 2.8363 5.19409H2.8624C4.26418 5.19409 5.13657 4.26552 5.13657 3.10509C5.11036 1.91845 4.26418 1.01562 2.88906 1.01562Z" fill="#191919"/>
<path d="M0.852539 6.84497H4.87193V18.9375H0.852539V6.84497Z" fill="#191919"/>
<path d="M14.7375 6.56128C12.5692 6.56128 11.1152 8.59879 11.1152 8.59879V6.84509H7.0957V18.9376H11.115V12.1847C11.115 11.8232 11.1412 11.4622 11.2474 11.2037C11.538 10.4818 12.1992 9.73393 13.3096 9.73393C14.764 9.73393 15.3457 10.8429 15.3457 12.4685V18.9376H19.3648V12.004C19.3648 8.28968 17.3818 6.56128 14.7375 6.56128Z" fill="#191919"/>
</svg>
