<svg width="50" height="50" viewBox="0 0 50 50" fill="none" xmlns="http://www.w3.org/2000/svg">
<path d="M21.0952 33.7891C21.6346 33.7891 22.0718 33.3518 22.0718 32.8125C22.0718 32.2732 21.6346 31.8359 21.0952 31.8359C20.5559 31.8359 20.1187 32.2732 20.1187 32.8125C20.1187 33.3518 20.5559 33.7891 21.0952 33.7891Z" fill="white"/>
<path d="M3.90771 13.2812V17.1875C3.90771 17.7269 4.34492 18.1641 4.88428 18.1641H33.1069C33.6462 18.1641 34.0835 17.7269 34.0835 17.1875V13.2812C34.0835 12.7419 33.6462 12.3047 33.1069 12.3047H4.88428C4.34492 12.3047 3.90771 12.7419 3.90771 13.2812ZM14.2593 14.2578H32.1304V16.2109H14.2593V14.2578ZM5.86084 14.2578H12.3062V16.2109H5.86084V14.2578Z" fill="white"/>
<path d="M4.88428 22.0703H33.1069C33.6462 22.0703 34.0835 21.6331 34.0835 21.0938C34.0835 20.5544 33.6462 20.1172 33.1069 20.1172H4.88428C4.34492 20.1172 3.90771 20.5544 3.90771 21.0938C3.90771 21.6331 4.34492 22.0703 4.88428 22.0703Z" fill="white"/>
<path d="M4.88428 25.9766H33.1069C33.6462 25.9766 34.0835 25.5394 34.0835 25C34.0835 24.4606 33.6462 24.0234 33.1069 24.0234H4.88428C4.34492 24.0234 3.90771 24.4606 3.90771 25C3.90771 25.5394 4.34492 25.9766 4.88428 25.9766Z" fill="white"/>
<path d="M4.88428 29.8828H21.0952C21.6346 29.8828 22.0718 29.4456 22.0718 28.9062C22.0718 28.3669 21.6346 27.9297 21.0952 27.9297H4.88428C4.34492 27.9297 3.90771 28.3669 3.90771 28.9062C3.90771 29.4456 4.34492 29.8828 4.88428 29.8828Z" fill="white"/>
<path d="M4.88428 33.7891H17.189C17.7283 33.7891 18.1655 33.3519 18.1655 32.8125C18.1655 32.2731 17.7283 31.8359 17.189 31.8359H4.88428C4.34492 31.8359 3.90771 32.2731 3.90771 32.8125C3.90771 33.3519 4.34492 33.7891 4.88428 33.7891Z" fill="white"/>
<path d="M13.2827 41.6016H18.2638C18.7175 43.8276 20.6902 45.5078 23.0483 45.5078C25.7407 45.5078 27.9312 43.3174 27.9312 40.625C27.9312 37.9326 25.7407 35.7422 23.0483 35.7422C20.6903 35.7422 18.7175 37.4224 18.2638 39.6484H13.2827C12.7434 39.6484 12.3062 40.0856 12.3062 40.625C12.3062 41.1644 12.7434 41.6016 13.2827 41.6016ZM23.0483 39.6484H20.2866C20.6897 38.5118 21.7752 37.6953 23.0483 37.6953C24.6638 37.6953 25.978 39.0096 25.978 40.625C25.978 42.2404 24.6638 43.5547 23.0483 43.5547C21.7753 43.5547 20.6897 42.7382 20.2866 41.6016H23.0483C23.5876 41.6016 24.0249 41.1644 24.0249 40.625C24.0249 40.0856 23.5877 39.6484 23.0483 39.6484Z" fill="white"/>
<path d="M33.1069 7.8125C33.6462 7.8125 34.0835 7.37529 34.0835 6.83594C34.0835 6.29658 33.6462 5.85938 33.1069 5.85938H31.1538C30.6146 5.85938 30.1772 6.29658 30.1772 6.83594C30.1772 7.37529 30.6146 7.8125 31.1538 7.8125H33.1069Z" fill="white"/>
<path d="M27.2476 7.8125C27.7868 7.8125 28.2241 7.37529 28.2241 6.83594C28.2241 6.29658 27.7868 5.85938 27.2476 5.85938H25.2944C24.7552 5.85938 24.3179 6.29658 24.3179 6.83594C24.3179 7.37529 24.7552 7.8125 25.2944 7.8125H27.2476Z" fill="white"/>
<path d="M21.3882 7.8125C21.9275 7.8125 22.3647 7.37529 22.3647 6.83594C22.3647 6.29658 21.9275 5.85938 21.3882 5.85938H19.4351C18.8957 5.85938 18.4585 6.29658 18.4585 6.83594C18.4585 7.37529 18.8957 7.8125 19.4351 7.8125H21.3882Z" fill="white"/>
<path d="M19.1421 50C19.6814 50 20.1187 49.5628 20.1187 49.0234C20.1187 48.4841 19.6814 48.0469 19.1421 48.0469C18.6027 48.0469 18.1655 48.4841 18.1655 49.0234C18.1655 49.5628 18.6027 50 19.1421 50Z" fill="white"/>
<path d="M0.978027 50H14.7476C15.2869 50 15.7241 49.5628 15.7241 49.0234C15.7241 48.4841 15.2869 48.0469 14.7476 48.0469H1.95459V9.76562H8.79053C9.32988 9.76562 9.76709 9.32842 9.76709 8.78906V1.95312H36.0366V29.5559C35.5937 30.08 35.18 30.5401 34.8221 30.9073L32.7518 28.837C30.844 26.928 27.7544 26.9271 25.846 28.8368L24.4651 30.2177C24.0838 30.599 24.0838 31.2174 24.4651 31.5987L36.0365 43.1701V48.0469H23.5365C22.9972 48.0469 22.56 48.4841 22.56 49.0234C22.56 49.5628 22.9972 50 23.5365 50H37.0131C37.5523 50 37.9896 49.5628 37.9896 49.0234V45.1232L38.2757 45.4093C38.657 45.7903 39.2755 45.7906 39.6568 45.4093L41.0377 44.0284C42.9457 42.1204 42.9461 39.0312 41.0377 37.123L38.9677 35.0528C40.8201 33.2479 44.8948 30.2497 47.0357 29.3173C50.0408 28.0092 51.1252 23.9233 48.5612 21.3594C46.0166 18.8135 41.9489 19.8479 40.6163 22.8616C40.1165 23.9911 39.0811 25.5792 37.9897 27.0674V0.976562C37.9897 0.437207 37.5524 0 37.0132 0H8.79053C8.52422 0 8.27393 0.112305 8.1 0.286035L0.2875 8.09854C0.11084 8.27481 0.00146484 8.52402 0.00146484 8.78906V49.0234C0.00146484 49.5628 0.438672 50 0.978027 50ZM39.6565 38.504C40.8014 39.6487 40.8016 41.5023 39.6565 42.6474L38.9663 43.3377L26.5368 30.9082L27.2273 30.2177C28.3721 29.0724 30.2251 29.0718 31.3705 30.2179L39.6565 38.504ZM37.7786 30.5179C39.471 28.4768 41.5571 25.5621 42.4024 23.6518C43.1615 21.9353 45.5739 21.1335 47.1801 22.7403C48.7869 24.3472 47.9706 26.7803 46.2561 27.5266C43.8261 28.585 39.5967 31.7063 37.5865 33.6717L36.2032 32.2884C36.6662 31.8146 37.2071 31.2073 37.7786 30.5179ZM7.81396 3.33418V7.8125H3.33564L7.81396 3.33418Z" fill="white"/>
</svg>
