<svg width="27" height="27" viewBox="0 0 17 17" fill="none" xmlns="http://www.w3.org/2000/svg">
<g clip-path="url(#clip0)">
<path d="M8.53331 0.827637C5.31589 0.827637 2.6983 3.30098 2.6983 6.34112C2.6983 7.36828 2.99942 8.37069 3.56931 9.24035L8.20117 16.2932C8.28989 16.4283 8.4462 16.5104 8.61432 16.5104C8.61561 16.5104 8.61688 16.5104 8.61817 16.5104C8.78775 16.5092 8.94438 16.4245 9.03149 16.2871L13.5453 9.16586C14.0837 8.31458 14.3683 7.3378 14.3683 6.34112C14.3683 3.30098 11.7507 0.827637 8.53331 0.827637ZM12.7107 8.69409L8.60696 15.1684L4.39587 8.75621C3.92151 8.03235 3.66432 7.19724 3.66432 6.34112C3.66432 3.80767 5.85212 1.74042 8.53331 1.74042C11.2145 1.74042 13.3991 3.80767 13.3991 6.34112C13.3991 7.17185 13.1588 7.9856 12.7107 8.69409Z" fill="#8B0C1D"/>
<path d="M8.53329 3.58447C6.92458 3.58447 5.61578 4.82115 5.61578 6.34121C5.61578 7.85157 6.90328 9.09795 8.53329 9.09795C10.1834 9.09795 11.4508 7.83497 11.4508 6.34121C11.4508 4.82115 10.142 3.58447 8.53329 3.58447ZM8.53329 8.18517C7.4552 8.18517 6.5818 7.35713 6.5818 6.34121C6.5818 5.32784 7.46081 4.49726 8.53329 4.49726C9.60576 4.49726 10.4815 5.32784 10.4815 6.34121C10.4815 7.34231 9.62845 8.18517 8.53329 8.18517Z" fill="#8B0C1D"/>
</g>
<defs>
<clipPath id="clip0">
<rect width="16.5973" height="15.6828" fill="white" transform="translate(0.234619 0.827637)"/>
</clipPath>
</defs>
</svg>
