<svg width="50" height="50" viewBox="0 0 50 50" fill="none" xmlns="http://www.w3.org/2000/svg">
<path d="M49.4454 34.7456C49.3578 34.7012 49.2628 34.6698 49.1635 34.6534C49.0701 34.6377 48.9835 34.6356 48.9033 34.6438C48.3513 34.6646 45.2525 34.7428 40.5303 34.1301C43.1234 31.0768 45.4735 27.2276 47.5316 22.6582C48.774 19.8703 49.4745 17.805 49.7737 16.9231C49.8212 16.7827 49.8703 16.6384 49.8953 16.5699C50.0577 16.2485 50.0345 15.8505 49.806 15.5447C49.5615 15.2173 49.1867 15.1183 48.7737 15.1847C48.7562 15.1878 48.4668 15.2397 48.3444 15.2635C46.8929 15.5454 45.25 16.0208 43.4519 16.6801C40.4952 17.7739 36.3542 19.6592 32.4929 22.6448C32.4635 21.2769 32.3365 19.8164 32.1139 18.2928C32.0797 18.0594 31.9615 17.8466 31.7828 17.6932C31.5698 17.5106 31.2845 17.4276 31.0051 17.4676C30.7472 17.5057 30.5196 17.6414 30.3632 17.8514C30.207 18.0604 30.1318 18.3182 30.1699 18.576C30.3547 19.8404 30.4639 21.0564 30.5053 22.2042C30.5122 22.3942 30.5553 23.0978 30.555 23.7243C30.5548 24.2737 30.5115 24.7653 30.5122 24.779C30.3749 27.5918 29.8096 29.7999 28.7836 31.5251C28.508 31.9887 28.6604 32.588 29.1242 32.8636C29.2807 32.9566 29.4527 33.0009 29.6225 33.0009C29.9557 33.0009 30.2805 32.8303 30.4631 32.5232C31.6144 30.5874 32.2634 28.1876 32.4453 25.201C36.4376 21.7731 40.9835 19.6755 44.1267 18.5128C45.3438 18.0666 46.4806 17.7104 47.5231 17.4481C47.1467 18.4994 46.5694 20.0176 45.7485 21.8598C43.6452 26.5295 41.2383 30.4032 38.5847 33.3916C38.3497 33.6563 37.2992 34.7028 36.9827 34.9421C36.693 35.1612 36.3927 35.3672 36.0972 35.5699C35.7963 35.7762 35.4853 35.9897 35.1911 36.2128C34.7613 36.5389 34.6773 37.1515 35.0036 37.5812C35.1958 37.8343 35.4873 37.9674 35.7825 37.9674C35.9882 37.9674 36.1959 37.9026 36.3724 37.7687C36.6293 37.5737 36.9079 37.3827 37.2028 37.1804C37.7478 36.8065 38.3514 36.3903 38.9132 35.8763C42.1399 36.3557 44.7651 36.53 46.5388 36.5865C45.8163 37.1874 45.037 37.7532 44.2071 38.2788C44.2036 38.2809 44.2001 38.2832 44.1966 38.2854C41.8086 39.8404 38.0094 41.629 34.3131 42.1389C33.8981 41.664 33.4019 41.1508 32.9985 40.7844C32.5992 40.4217 31.9813 40.4513 31.6185 40.8507C31.2557 41.25 31.2854 41.8675 31.6847 42.2302C31.9963 42.5131 32.3836 42.9102 32.7231 43.2895C32.8756 43.46 33.5833 44.3554 33.7844 44.6422C34.4547 45.5981 34.9804 46.5353 35.3757 47.3338C32.7257 46.3959 30.671 45.3502 29.2536 44.2167C28.6923 43.7548 28.2369 43.2787 27.936 42.8151C27.7559 42.5375 27.4474 42.3828 27.1165 42.3828H22.8662C22.5352 42.3828 22.2267 42.5376 22.0465 42.8152C21.7459 43.2786 21.2905 43.761 20.7295 44.2227C19.3124 45.3562 17.2578 46.3987 14.607 47.3369C14.9986 46.546 15.518 45.6181 16.1792 44.6713C16.3858 44.3753 17.2167 43.3457 17.4442 43.0991C17.7505 42.7671 18.0766 42.4313 18.2981 42.23C18.6973 41.8671 18.7267 41.2496 18.3637 40.8504C18.0007 40.4515 17.3829 40.4221 16.9838 40.7848C16.6275 41.1085 16.0926 41.6722 15.6767 42.1405C11.9783 41.6319 8.17555 39.8417 5.7859 38.2857C5.78249 38.2834 5.77897 38.2811 5.77545 38.2789C4.94528 37.7533 4.16569 37.1873 3.44303 36.5862C5.21745 36.5295 7.84547 36.3552 11.0693 35.8764C11.6313 36.3907 12.2351 36.8071 12.7804 37.1811C13.0751 37.3832 13.3534 37.5741 13.6102 37.7689C13.7868 37.9029 13.9943 37.9676 14.2001 37.9676C14.4952 37.9676 14.7869 37.8344 14.9791 37.5813C15.3052 37.1517 15.2212 36.539 14.7914 36.213C14.4974 35.9901 13.2445 35.1307 12.9347 34.8928C12.6418 34.6679 11.4589 33.4663 11.1395 33.0973C8.58795 30.1505 6.26901 26.3782 4.23542 21.8633C3.41325 20.0186 2.83551 18.4996 2.45895 17.4481C3.50094 17.7103 4.63678 18.0662 5.85241 18.5119C8.9985 19.6757 13.5444 21.7738 17.5367 25.2018C17.7139 28.1795 18.3631 30.579 19.5194 32.5233C19.702 32.8304 20.0268 33.001 20.36 33.001C20.5297 33.001 20.7018 32.9567 20.8583 32.8637C21.322 32.5881 21.4745 31.9889 21.1988 31.5252C20.2892 29.9957 19.7493 28.0981 19.5439 25.7472C19.514 25.4054 19.4442 23.7669 19.4461 23.298C19.4345 16.513 22.0352 9.46293 22.8357 7.45961C23.6757 5.33002 24.4446 3.82768 24.9936 2.86215C25.4431 3.65248 26.0404 4.80278 26.7035 6.36225C26.8504 6.70786 27.4678 8.26694 27.6211 8.68393C27.8032 9.17983 27.9809 9.68901 28.1528 10.2079C28.2856 10.6074 28.6586 10.8769 29.0797 10.8769C29.1842 10.8769 29.2877 10.8603 29.3874 10.8271C29.6355 10.744 29.8368 10.5703 29.953 10.3377C30.0702 10.1043 30.0897 9.83969 30.0067 9.59165C29.822 9.03559 29.6305 8.48852 29.4339 7.95522C29.2826 7.54457 28.6646 5.9853 28.5161 5.6352C27.8119 3.97504 27.1716 2.74428 26.6895 1.89633C26.3477 1.29526 25.8883 0.580023 25.8722 0.554535C25.7105 0.216937 25.369 0.000335693 24.9925 -0.000152588C24.992 -0.000152588 24.9917 -0.000152588 24.9917 -0.000152588C24.6146 -0.000152588 24.2725 0.216156 24.1104 0.553949C24.0943 0.579437 23.6369 1.29155 23.2967 1.8893C22.7128 2.91547 21.8962 4.50454 21.0147 6.73911C20.2084 8.75717 17.6337 15.723 17.4886 22.6431C13.6279 19.6582 9.48668 17.7737 6.5279 16.679C4.7236 16.0177 3.07428 15.5408 1.61882 15.2597C1.50241 15.2373 1.22546 15.1877 1.20817 15.1845C0.826238 15.106 0.419597 15.2179 0.175359 15.5458C-0.0522774 15.8516 -0.0305977 16.2067 0.0869804 16.5697C0.111883 16.638 0.160808 16.7824 0.208367 16.9225C0.507488 17.8043 1.20807 19.8696 2.45231 22.6615C4.50915 27.2281 6.85895 31.0767 9.45192 34.1299C4.73415 34.7416 1.62624 34.6638 1.07829 34.6436C0.998503 34.6357 0.912371 34.6377 0.819402 34.6532C0.676629 34.6766 0.543035 34.7312 0.426824 34.8106C0.185418 34.974 0.0219414 35.2421 0.00241011 35.5564C-0.0174141 35.8752 0.130633 36.104 0.34489 36.3611C0.358074 36.3749 0.640691 36.6669 0.767937 36.7932C1.92458 37.9412 3.25339 38.9932 4.72477 39.9252C7.06579 41.4488 10.6777 43.1819 14.3414 43.897C13.0081 45.8898 11.9391 48.5852 11.9391 48.5852C11.9083 48.6708 11.8631 48.913 11.8755 49.0383C11.9185 49.477 12.2503 49.8326 12.685 49.906C12.7314 49.9139 12.9585 49.9328 13.2469 49.8349C13.2956 49.8193 13.9583 49.613 14.1995 49.5344C17.5679 48.4365 20.1716 47.1627 21.9469 45.7438C21.9808 46.9916 22.018 48.1027 22.0582 49.0621C22.08 49.5843 22.5093 49.9966 23.0322 49.9978C23.6851 49.9992 24.3382 49.9999 24.9915 49.9999C25.6446 49.9999 26.2977 49.9991 26.9506 49.9978C27.4735 49.9966 27.9028 49.5843 27.9247 49.0621C27.9648 48.1043 28.0019 46.9954 28.0358 45.75C29.9388 47.271 32.7931 48.6218 36.52 49.7711C36.6164 49.8009 36.6903 49.8218 36.7387 49.8374C36.9088 49.8921 37.0418 49.918 37.1482 49.918C37.2226 49.918 37.2759 49.9099 37.2948 49.9069C37.7308 49.8346 38.0639 49.4785 38.1073 49.0389C38.1142 48.9686 38.1244 48.7446 38.0111 48.5121C38.0226 48.5361 37.9613 48.3641 37.9171 48.2511C37.5608 47.3375 36.8279 45.6703 35.6415 43.897C39.3055 43.1818 42.9176 41.4486 45.2585 39.925C46.8312 38.9286 48.2412 37.7951 49.4522 36.5539C49.4985 36.5064 49.6247 36.3749 49.6378 36.3612C49.864 36.1689 49.9998 35.8765 49.9806 35.5582C49.9582 35.1968 49.7468 34.8964 49.4454 34.7456ZM26.0085 48.0462C25.3302 48.0471 24.6517 48.0471 23.9735 48.0462C23.934 46.9626 23.8979 45.7208 23.8654 44.3359H26.1167C26.084 45.7208 26.0479 46.9626 26.0085 48.0462Z" fill="white"/>
<path d="M30.31 15.0995C30.8495 15.0995 31.2869 14.6623 31.2869 14.123C31.2869 13.5836 30.8495 13.1464 30.31 13.1464C29.7704 13.1464 29.333 13.5836 29.333 14.123C29.333 14.6623 29.7704 15.0995 30.31 15.0995Z" fill="white"/>
</svg>
