<svg width="18" height="18" viewBox="0 0 18 18" fill="none" xmlns="http://www.w3.org/2000/svg">
<path d="M17.1572 13.5637L17.5107 13.2102L17.1572 13.5637C17.5749 13.9815 17.609 14.7492 17.1445 15.2915L15.4526 16.9834L15.7826 17.3134L15.4526 16.9834C15.1233 17.3127 14.6323 17.4988 13.9591 17.5C13.2818 17.5013 12.4544 17.3133 11.5216 16.9305C9.65774 16.1656 7.46859 14.6619 5.39422 12.5875C3.32147 10.5148 1.84002 8.32639 1.08581 6.46241C0.708376 5.5296 0.522053 4.7002 0.519557 4.01981C0.517078 3.34451 0.694081 2.85223 1.00316 2.52422L2.70284 0.824545C3.12059 0.406793 3.88835 0.372739 4.43061 0.837185L6.92993 3.3365C7.57732 3.98389 7.29226 5.04497 6.50845 5.28615L6.50841 5.28602L6.4974 5.28969C5.47928 5.62901 4.74359 6.76894 5.0975 7.87412C5.35758 8.93869 6.14315 10.0635 7.05554 10.9643C7.97414 11.8713 9.10444 12.6333 10.1227 12.8878L10.1227 12.888L10.1355 12.8909C11.1692 13.1206 12.3343 12.5574 12.692 11.4843L12.6921 11.4844L12.6956 11.4733C12.9367 10.6895 13.9978 10.4044 14.6452 11.0518L17.1572 13.5637Z" stroke="#8B0C1D"/>
</svg>
