<svg width="50" height="50" viewBox="0 0 50 50" fill="none" xmlns="http://www.w3.org/2000/svg">
<g clip-path="url(#clip0)">
<path d="M32.2208 7.27585C31.5417 4.73416 29.9207 2.61444 27.6565 1.30722C26.1752 0.452049 24.4882 0 22.7778 0C19.2673 0 16.0031 1.87636 14.2593 4.89686L8.07925 15.6009C8.07866 15.6019 8.07798 15.6028 8.07739 15.6037C8.07681 15.6047 8.07642 15.6058 8.07583 15.6068L1.89558 26.3111C-0.808314 30.9945 0.802226 37.0045 5.48561 39.7084C6.96665 40.5635 8.65347 41.0155 10.3636 41.0155C13.5654 41.0155 16.5705 39.4655 18.4023 36.8693C18.4191 36.8455 18.4348 36.8209 18.4493 36.7959L31.2459 14.7059C32.5522 12.4506 32.8984 9.81207 32.2208 7.27585ZM16.7818 35.7778C15.3132 37.8353 12.9172 39.0623 10.3636 39.0623C8.99585 39.0623 7.64673 38.7008 6.46216 38.0169C2.7114 35.8515 1.42166 31.0384 3.58708 27.2876L9.28071 17.426L11.3946 18.6464C11.3948 18.6465 11.3949 18.6467 11.3951 18.6467C11.3952 18.6468 11.3953 18.6468 11.3954 18.6469L22.8683 25.271L16.7818 35.7778ZM29.5557 13.7267L23.8472 23.5812L13.2172 17.4438L15.9492 12.7118C16.2189 12.2447 16.0589 11.6474 15.5918 11.3778C15.1247 11.1081 14.5275 11.2681 14.2578 11.7352L11.5258 16.4672L10.2572 15.7348L15.9506 5.87351C17.3468 3.45526 19.9628 1.95312 22.7778 1.95312C24.1458 1.95312 25.4952 2.31464 26.68 2.99872C28.492 4.04481 29.7896 5.74295 30.3338 7.78005C30.8766 9.81168 30.6003 11.9236 29.5557 13.7267Z" fill="white"/>
<path d="M45.1415 33.4784C42.757 32.7971 39.6123 32.4219 36.2868 32.4219C32.9613 32.4219 29.8167 32.7971 27.4321 33.4784C24.5989 34.2879 23.161 35.4275 23.1576 36.8657C23.1576 36.8675 23.1573 36.869 23.1573 36.8707V45.5512C23.1573 46.9943 24.5933 48.1364 27.4251 48.9455C29.8052 49.6256 32.9523 50.0001 36.2866 50.0001C39.6209 50.0001 42.768 49.6256 45.1481 48.9455C47.98 48.1364 49.4158 46.9943 49.4158 45.5512V36.8768C49.416 36.8748 49.4162 36.8728 49.4162 36.8707C49.4162 35.4302 47.9779 34.2888 45.1415 33.4784ZM27.9688 35.3564C30.1838 34.7236 33.1379 34.3751 36.2869 34.3751C39.436 34.3751 42.3901 34.7236 44.6051 35.3564C46.9597 36.0292 47.4603 36.7518 47.4631 36.8696C47.4631 36.87 47.463 36.8704 47.463 36.8708V36.8725C47.459 36.9916 46.9569 37.7131 44.6051 38.3851C42.3901 39.0179 39.436 39.3664 36.2869 39.3664C33.1379 39.3664 30.1838 39.0179 27.9688 38.3851C25.6075 37.7105 25.1107 36.9855 25.1107 36.8708C25.1107 36.7561 25.6075 36.0311 27.9688 35.3564ZM47.4631 45.5512C47.4629 45.6904 46.9556 46.3979 44.6118 47.0676C42.4012 47.6991 39.4447 48.047 36.2868 48.047C33.1288 48.047 30.1724 47.6992 27.9618 47.0676C25.618 46.398 25.1107 45.6904 25.1107 45.5512V39.3681C25.7359 39.7006 26.5097 39.9994 27.4322 40.263C29.8168 40.9443 32.9614 41.3195 36.2869 41.3195C39.6124 41.3195 42.7571 40.9443 45.1416 40.263C46.0641 39.9994 46.8376 39.7007 47.463 39.3682V41.8053C46.0618 42.4986 44.314 43.0602 42.3649 43.4392C41.8354 43.5421 41.4897 44.0547 41.5926 44.5842C41.6833 45.0507 42.092 45.3745 42.5502 45.3745C42.6121 45.3745 42.6747 45.3686 42.7376 45.3564C44.4771 45.0182 46.0812 44.5397 47.4631 43.9523V45.5512Z" fill="white"/>
<path d="M17.0587 8.83639C16.5916 8.56676 15.9944 8.72672 15.7247 9.19381L15.7089 9.22125C15.4392 9.68834 15.5992 10.2855 16.0663 10.5552C16.2201 10.644 16.388 10.6862 16.5537 10.6862C16.8912 10.6862 17.2194 10.5111 17.4003 10.1978L17.4161 10.1704C17.6858 9.70328 17.5257 9.10611 17.0587 8.83639Z" fill="white"/>
<path d="M40.5965 44.7228C40.543 44.1863 40.0655 43.7948 39.5277 43.8483L39.5057 43.8505C38.9688 43.9012 38.5748 44.3778 38.6256 44.9147C38.6735 45.4203 39.0989 45.7992 39.5966 45.7992C39.6274 45.7992 39.6586 45.7977 39.6899 45.7948L39.722 45.7917C40.2586 45.7381 40.6502 45.2594 40.5965 44.7228Z" fill="white"/>
</g>
<defs>
<clipPath id="clip0">
<rect width="50" height="50" fill="white"/>
</clipPath>
</defs>
</svg>
