<svg width="50" height="50" viewBox="0 0 50 50" fill="none" xmlns="http://www.w3.org/2000/svg">
<g clip-path="url(#clip0)">
<path fill-rule="evenodd" clip-rule="evenodd" d="M25.0833 1.96383C23.6798 1.96383 22.3986 2.25775 21.375 2.7596C20.4099 3.23126 19.686 3.87491 19.3366 4.60418L18.0356 8.19892C19.2728 7.48609 20.6928 7.00641 22.0878 6.74C23.0449 6.55692 24.049 6.45984 25.0833 6.45984C26.1179 6.45984 27.122 6.55692 28.0791 6.74C29.4742 7.00641 30.8941 7.48609 32.1313 8.19892L30.8303 4.60418C30.4809 3.87491 29.757 3.23126 28.7919 2.7596C27.7683 2.25775 26.4868 1.96383 25.0833 1.96383ZM15.7836 32.4486C16.3271 32.4486 16.7682 32.8897 16.7682 33.4332C16.7682 33.9771 16.3271 34.4178 15.7836 34.4178C15.2397 34.4178 14.799 33.9771 14.799 33.4332C14.799 32.8897 15.2397 32.4486 15.7836 32.4486ZM17.3312 29.736C16.9898 30.1909 17.0789 30.8372 17.5307 31.1781C17.9855 31.5195 18.6292 31.4277 18.9705 30.9729H18.9732C22.6979 26.022 26.4703 20.7161 28.4479 16.8802C29.5709 14.7084 30.3395 13.097 30.8582 11.8349C31.1326 11.1749 31.3379 10.6061 31.4904 10.1016C31.9039 10.3623 32.2728 10.6505 32.5915 10.9585C33.1075 11.4523 33.4901 11.9959 33.7149 12.5699C33.7982 13.0194 34.2947 16.2866 31.8317 21.1683C27.6491 29.4586 20.773 40.1453 14.8513 47.3761L11.3843 40.789C12.1999 39.7432 13.1512 38.5282 14.1886 37.1969C14.5184 36.7642 14.4351 36.1458 13.9998 35.8129C13.5644 35.48 12.9429 35.5606 12.6131 35.9933C10.7463 38.4368 9.46477 40.0704 9.45407 40.0872C9.20983 40.3976 9.18499 40.8138 9.35966 41.1437L13.7945 49.5757C14.0468 50.0527 14.6404 50.2358 15.1177 49.9862C15.2423 49.9197 15.3478 49.8307 15.4281 49.7282C18.0467 46.7133 21.2944 42.1313 24.3567 37.4606C24.5979 37.0914 24.839 36.7226 25.0775 36.3537C26.6863 38.8336 28.3753 41.3352 30.0062 43.6151C31.6815 45.9562 33.307 48.0805 34.7381 49.7282C34.8214 49.8307 34.9238 49.9197 35.0488 49.9862C35.5258 50.2358 36.1194 50.0527 36.372 49.5757L40.8096 41.1437C40.9816 40.8138 40.9567 40.3976 40.7125 40.0872C40.6987 40.0677 35.5896 33.5467 30.8303 27.0235C31.9949 25.0237 32.9493 23.301 33.5788 22.0504C36.5494 16.1616 35.6229 12.1151 35.6202 12.104C35.2594 10.4288 33.4011 5.31433 32.6053 3.78318C32.0644 2.64035 31.016 1.67258 29.6485 1.00408C28.3619 0.374572 26.7807 0 25.0833 0C23.3858 0 21.8077 0.374572 20.5181 1.00408C19.131 1.68099 18.0746 2.66825 17.5391 3.83057C16.7211 5.61934 14.9431 10.2679 14.5463 12.104C14.5437 12.1151 13.6172 16.162 16.5878 22.0504C16.8985 22.6662 17.348 23.5009 17.8693 24.4385C18.349 25.3012 18.8486 26.183 19.334 27.0177C18.6682 27.9305 17.9939 28.8428 17.3312 29.736ZM20.4569 9.21944C20.593 9.73008 20.8036 10.3374 21.117 11.0919C21.6108 12.2871 22.3569 13.8488 23.4581 15.9843C23.6909 16.4338 24.0268 17.0136 24.4178 17.6569C24.6342 18.0093 24.8589 18.3697 25.0863 18.7305C25.7655 17.6683 26.3205 16.7334 26.7088 15.9847C27.81 13.8488 28.5561 12.2875 29.0495 11.0919C29.3629 10.3374 29.5739 9.73008 29.71 9.21982C29.0912 8.98667 28.4227 8.80091 27.7099 8.66484C26.8862 8.50699 26.0044 8.42099 25.0833 8.42099C24.1625 8.42099 23.2804 8.50699 22.4567 8.66484C21.7438 8.80053 21.0754 8.98667 20.4569 9.21944ZM23.9129 20.5193C23.4913 19.873 23.0919 19.2408 22.7479 18.6774C22.3321 17.9951 21.9713 17.374 21.719 16.8802C20.5957 14.7084 19.8301 13.097 19.3087 11.8349C19.0339 11.1749 18.8291 10.6061 18.6762 10.1016C18.263 10.3623 17.8942 10.6508 17.575 10.9585C17.0594 11.4523 16.6764 11.9959 16.4517 12.5699C16.3687 13.0194 15.8722 16.2866 18.3352 21.1683C18.6456 21.784 19.0813 22.5913 19.5778 23.4872C19.8771 24.025 20.2211 24.6327 20.593 25.276C21.7855 23.6145 22.9226 21.992 23.9129 20.5193ZM26.2372 34.5481C27.9568 37.2191 29.804 39.9706 31.6016 42.4807C32.8965 44.292 34.1586 45.9646 35.3152 47.3761L38.7823 40.7916C37.5424 39.1993 33.5539 34.0543 29.7459 28.8596C28.6807 30.643 27.4909 32.5763 26.2372 34.5481Z" fill="white"/>
</g>
<defs>
<clipPath id="clip0">
<rect width="50" height="50" fill="white"/>
</clipPath>
</defs>
</svg>
