<svg width="50" height="50" viewBox="0 0 50 50" fill="none" xmlns="http://www.w3.org/2000/svg">
<path d="M19.0379 33.6827C19.4336 33.3995 19.341 32.5923 18.831 31.8797C18.321 31.1671 17.5868 30.819 17.1911 31.1022C16.7954 31.3854 16.888 32.1926 17.398 32.9052C17.908 33.6178 18.6422 33.9659 19.0379 33.6827Z" fill="white"/>
<path d="M22.2615 25.5875C22.6572 25.3043 22.5646 24.497 22.0546 23.7845C21.5446 23.0719 20.8104 22.7238 20.4147 23.007C20.019 23.2902 20.1117 24.0974 20.6217 24.81C21.1316 25.5226 21.8658 25.8707 22.2615 25.5875Z" fill="white"/>
<path d="M30.1902 30.7867C30.5859 30.5035 30.4933 29.6962 29.9833 28.9837C29.4733 28.2711 28.7391 27.923 28.3434 28.2062C27.9477 28.4894 28.0404 29.2966 28.5504 30.0092C29.0603 30.7218 29.7945 31.0699 30.1902 30.7867Z" fill="white"/>
<path d="M41.4832 18.7595C41.8789 18.4763 41.7863 17.6691 41.2763 16.9565C40.7663 16.2439 40.0321 15.8958 39.6364 16.179C39.2407 16.4622 39.3333 17.2695 39.8433 17.9821C40.3533 18.6946 41.0875 19.0427 41.4832 18.7595Z" fill="white"/>
<path d="M39.0941 28.5644C39.4897 28.2812 39.3971 27.474 38.8871 26.7614C38.3771 26.0488 37.6429 25.7007 37.2472 25.9839C36.8515 26.2671 36.9442 27.0744 37.4542 27.7869C37.9642 28.4995 38.6984 28.8476 39.0941 28.5644Z" fill="white"/>
<path d="M44.0589 36.8337C44.4546 36.5505 44.3619 35.7433 43.852 35.0307C43.342 34.3181 42.6078 33.97 42.2121 34.2532C41.8164 34.5364 41.909 35.3437 42.419 36.0562C42.929 36.7688 43.6632 37.1169 44.0589 36.8337Z" fill="white"/>
<path d="M33.1819 41.2449C33.5776 40.9617 33.485 40.1545 32.975 39.4419C32.465 38.7293 31.7308 38.3812 31.3351 38.6644C30.9394 38.9476 31.0321 39.7549 31.5421 40.4675C32.052 41.18 32.7862 41.5281 33.1819 41.2449Z" fill="white"/>
<path d="M40.8201 45.3351C41.2158 45.0519 41.1232 44.2447 40.6132 43.5321C40.1032 42.8195 39.369 42.4715 38.9733 42.7547C38.5776 43.0378 38.6703 43.8451 39.1802 44.5577C39.6902 45.2702 40.4244 45.6183 40.8201 45.3351Z" fill="white"/>
<path d="M23.1419 41.332C23.5376 41.0488 23.445 40.2416 22.935 39.529C22.425 38.8164 21.6908 38.4683 21.2951 38.7515C20.8994 39.0347 20.992 39.8419 21.502 40.5545C22.012 41.2671 22.7462 41.6152 23.1419 41.332Z" fill="white"/>
<path d="M32.0408 20.0139C32.4365 19.7307 32.3439 18.9235 31.8339 18.2109C31.3239 17.4983 30.5897 17.1502 30.194 17.4334C29.7983 17.7166 29.891 18.5239 30.401 19.2364C30.9109 19.949 31.6451 20.2971 32.0408 20.0139Z" fill="white"/>
<path d="M47.3156 34.7417C46.9098 34.7115 46.5597 35.0146 46.5294 35.4185C46.2898 38.6309 45.6444 41.6937 44.6107 44.5207C43.7336 46.9205 41.4237 48.533 38.8647 48.533C38.6994 48.533 38.5312 48.5262 38.3659 48.5125C28.0647 47.6744 18.5869 41.058 18.4931 40.9915C18.4872 40.9867 18.4813 40.9827 18.4755 40.9788C15.9828 39.3252 14.0848 36.8638 13.1283 34.0494C12.9982 33.6661 12.5816 33.4608 12.1983 33.5909C11.815 33.7209 11.6097 34.1375 11.7397 34.5208C12.7979 37.6384 14.8983 40.3628 17.6551 42.1953C17.8458 42.3293 20.2172 43.979 23.8814 45.753C27.3411 47.4271 32.6414 49.5189 38.2467 49.9745C38.4521 49.9911 38.6594 49.9999 38.8647 49.9999C42.038 49.9999 44.9004 48.0001 45.9878 45.0243C47.0684 42.0701 47.7422 38.8743 47.9925 35.528C48.0217 35.1242 47.7195 34.7721 47.3156 34.7417Z" fill="white"/>
<path d="M46.6226 21.4775C45.0031 15.2776 39.5367 10.7274 33.4942 10.4645C34.1162 9.28906 34.4398 8.07256 34.5924 6.96162C34.6481 6.55967 34.3675 6.19004 33.9655 6.13525C33.5645 6.07949 33.1949 6.36016 33.1392 6.76113C32.9406 8.20352 32.4811 9.45332 31.7633 10.5105C30.2915 10.6562 28.8785 11.0757 27.5847 11.7514C27.6385 11.4854 27.6805 11.2174 27.7108 10.9466C27.7568 10.5437 27.4664 10.1809 27.0645 10.1359C26.6605 10.0909 26.2987 10.3804 26.2538 10.7833C26.1687 11.5412 25.9702 12.2775 25.6593 12.9914L21.6753 15.843C21.4363 15.5103 21.2448 15.2791 21.1766 15.1927C20.3884 13.9038 19.6295 12.1201 19.6295 10.0245C19.6295 7.60811 20.6289 5.19951 22.6004 2.86533C22.7617 2.67363 22.9681 2.64531 23.0767 2.64531C23.2752 2.64531 23.459 2.73525 23.5793 2.89268C24.0995 3.57334 24.7098 4.48272 25.2202 5.54961C25.6086 6.35654 25.9186 7.21299 26.1062 8.1C26.1902 8.49609 26.5795 8.74932 26.9755 8.66621C27.3716 8.58213 27.6248 8.19287 27.5417 7.7959C27.3823 7.04678 27.1516 6.33398 26.8777 5.66797C27.8771 4.14248 29.4907 2.67656 32.0342 1.52266C32.1163 1.48555 32.2023 1.46689 32.2895 1.46689C32.5437 1.46689 32.8371 1.63897 32.9065 1.96758C33.0493 2.64229 33.149 3.32393 33.2028 3.9918C33.2351 4.3957 33.5871 4.69688 33.992 4.66455C34.3959 4.63232 34.6971 4.2793 34.6647 3.87539C34.6061 3.14395 34.4976 2.39971 34.342 1.66338C34.1377 0.699219 33.2742 0 32.2895 0C31.9922 0 31.7018 0.0625977 31.4279 0.186816C28.9754 1.29873 27.2885 2.67852 26.1463 4.14434C25.6827 3.30234 25.1851 2.57773 24.7449 2.00176C24.3439 1.47861 23.7367 1.17832 23.0767 1.17832C22.4596 1.17832 21.8768 1.44824 21.4798 1.91855C19.2785 4.52471 18.1628 7.25205 18.1628 10.0243C18.1628 10.4027 18.1853 10.7714 18.2244 11.1304L14.9943 6.61748C14.7587 6.28789 14.3 6.2126 13.9705 6.44736C13.6419 6.68399 13.5656 7.1417 13.8014 7.47119L16.9687 11.8962C14.6541 10.8557 11.4583 10.4353 7.31396 12.0575C6.72236 12.2893 6.27246 12.7704 6.08184 13.3787C5.89014 13.989 5.98506 14.6441 6.34004 15.1741C6.72627 15.7511 7.2544 16.464 7.91934 17.1925C5.99287 17.8584 4.16807 19.1023 2.46562 20.9153C2.10088 21.3035 1.90039 21.8111 1.90039 22.344C1.90039 23.0921 2.28271 23.7669 2.92422 24.1492C3.57256 24.5354 4.24434 24.8797 4.91914 25.1711C5.2917 25.3314 5.72295 25.1604 5.8833 24.7888C6.04365 24.4162 5.87256 23.985 5.50098 23.8245C4.88389 23.5575 4.26885 23.2427 3.6752 22.8887C3.48154 22.7742 3.36719 22.5709 3.36719 22.3439C3.36719 22.2324 3.39551 22.0682 3.53535 21.9195C5.28086 20.0605 7.15166 18.8714 9.11621 18.3668C10.71 19.7604 12.5671 20.7404 14.6423 21.0052C13.5696 22.0172 12.7111 23.2237 12.0941 24.5681C10.8007 24.9203 9.46416 24.9127 8.14316 24.6566C7.74512 24.5804 7.36084 24.8396 7.28359 25.2375C7.20635 25.6355 7.4665 26.0198 7.86445 26.0971C8.58711 26.2369 9.30391 26.3083 9.99434 26.3083H9.99531C10.5048 26.3083 11.0016 26.2711 11.4856 26.1978C11.1434 27.3614 10.9645 28.5995 10.9645 29.8845C10.9645 30.4233 10.9967 30.9719 11.0603 31.5147C11.1072 31.9176 11.472 32.2051 11.8738 32.1581C12.2758 32.1111 12.5643 31.7474 12.5173 31.3445C12.4605 30.8585 12.4312 30.3666 12.4312 29.8846C12.4312 28.2297 12.7744 26.6763 13.321 25.4268C14.604 22.4325 16.8676 21.1176 16.9335 21.0405L16.9822 21.0064C16.9826 21.0062 16.9833 21.0057 16.984 21.0052C16.9852 21.0044 16.9862 21.0035 16.9871 21.0029C16.9879 21.0023 16.9888 21.0018 16.9896 21.0011C16.9906 21.0004 16.9912 21 16.991 21.0001C17.095 20.9257 18.175 20.1526 27.0733 13.7835C33.4539 9.21494 43.0136 13.4644 45.2036 21.8482C46.1473 25.4616 46.6284 29.0593 46.6333 32.5436C46.6343 32.9484 46.9629 33.276 47.3667 33.276C47.7707 33.276 48.1011 32.9485 48.1001 32.5416C48.0942 28.933 47.5975 25.2102 46.6226 21.4775ZM16.4475 19.5844C14.652 19.7348 12.8674 19.27 11.1424 18.0892C10.5537 17.6872 10.0227 17.2345 9.54941 16.772C8.68105 15.9212 8.01211 15.0353 7.5584 14.3585C7.45186 14.1991 7.42344 14.0016 7.48213 13.8177C7.51533 13.7111 7.60732 13.5175 7.84883 13.4226C9.53574 12.7625 11.1277 12.4329 12.6171 12.4329C15.4538 12.4329 17.8735 13.651 19.7421 15.7715L20.2995 16.5509C20.3426 16.6135 20.3855 16.6751 20.4286 16.7348L16.4475 19.5844Z" fill="white"/>
<path d="M16.982 21.0062L16.9819 21.0063L16.983 21.0055L16.982 21.0062Z" fill="white"/>
<path d="M16.9821 21.0064L16.9819 21.0066L16.9822 21.0064H16.9821Z" fill="white"/>
</svg>
