<svg width="50" height="50" viewBox="0 0 50 50" fill="none" xmlns="http://www.w3.org/2000/svg">
<path d="M30.5908 48.5352H14.0625C13.8202 48.5352 13.623 48.338 13.623 48.0957V44.2454V33.8938V29.3677V19.0161V14.4899V4.13838V1.9043C13.623 1.66201 13.8202 1.46484 14.0625 1.46484H15.7227C16.1272 1.46484 16.4551 1.13691 16.4551 0.732422C16.4551 0.32793 16.1272 0 15.7227 0H14.0625C13.0125 0 12.1582 0.854297 12.1582 1.9043V3.40586H8.00781C7.60322 3.40586 7.27539 3.73379 7.27539 4.13828V10.1225C7.27539 12.8617 9.44658 15.1025 12.1582 15.2167V18.2835H8.00781C7.60322 18.2835 7.27539 18.6114 7.27539 19.0159V25.0001C7.27539 27.7394 9.44658 29.9802 12.1582 30.0943V33.1611H8.00781C7.60322 33.1611 7.27539 33.4891 7.27539 33.8936V39.8777C7.27539 42.617 9.44658 44.8578 12.1582 44.972V48.0957C12.1582 49.1457 13.0125 50 14.0625 50H30.5908C30.9954 50 31.3232 49.6721 31.3232 49.2676C31.3232 48.8631 30.9954 48.5352 30.5908 48.5352ZM12.1582 43.5066C10.2545 43.394 8.74023 41.8096 8.74023 39.878V34.6263H12.1582V43.5066ZM12.1582 28.6289C10.2545 28.5163 8.74023 26.9318 8.74023 25.0003V19.7485H12.1582V28.6289ZM12.1582 13.7511C10.2545 13.6386 8.74023 12.0541 8.74023 10.1226V4.8707H12.1582V13.7511Z" fill="white"/>
<path d="M42.7244 10.1226V4.13828C42.7244 3.73379 42.3966 3.40586 41.992 3.40586H37.8416V1.9043C37.8416 0.854297 36.9873 0 35.9373 0H18.6685C18.2639 0 17.936 0.32793 17.936 0.732422C17.936 1.13691 18.2639 1.46484 18.6685 1.46484H35.9373C36.1796 1.46484 36.3767 1.66201 36.3767 1.9043V4.13828V14.4898V19.016V29.3676V33.8937V44.2453V48.0957C36.3767 48.338 36.1796 48.5352 35.9373 48.5352H33.5447C33.1401 48.5352 32.8123 48.8631 32.8123 49.2676C32.8123 49.6721 33.1401 50 33.5447 50H35.9373C36.9873 50 37.8416 49.1457 37.8416 48.0957V44.9723C40.5532 44.8581 42.7244 42.6173 42.7244 39.878V33.8938C42.7244 33.4894 42.3966 33.1614 41.992 33.1614H37.8416V30.0946C40.5532 29.9805 42.7244 27.7396 42.7244 25.0004V19.0162C42.7244 18.6117 42.3966 18.2838 41.992 18.2838H37.8416V15.2168C40.5532 15.1026 42.7244 12.8618 42.7244 10.1226ZM37.8416 4.8707H41.2596V10.1225C41.2596 12.054 39.7453 13.6385 37.8416 13.751V4.8707ZM41.2596 34.6262V39.878C41.2596 41.8096 39.7453 43.394 37.8416 43.5065V34.6262H41.2596ZM41.2596 19.7484V25.0003C41.2596 26.9318 39.7453 28.5163 37.8416 28.6288V19.7484H41.2596Z" fill="white"/>
<path d="M33.0328 25.1365C32.7179 20.9614 29.1894 17.6909 24.9998 17.6909C20.8103 17.6909 17.2817 20.9614 16.9668 25.1365C16.9413 25.4742 17.0589 25.8103 17.2894 26.0588C17.5198 26.3072 17.8461 26.4497 18.1848 26.4497H18.4496C18.815 29.7411 21.6125 32.3095 24.9998 32.3095C25.9725 32.3095 26.9101 32.1014 27.7866 31.691C28.1529 31.5195 28.3109 31.0835 28.1393 30.7171C27.9677 30.3507 27.5316 30.1927 27.1653 30.3644C26.4847 30.6832 25.7561 30.8447 24.9997 30.8447C22.4213 30.8447 20.2822 28.9311 19.9259 26.4497H20.1458C20.7713 26.4497 21.2928 25.9806 21.3588 25.3584C21.5565 23.4925 23.1218 22.0854 24.9997 22.0854C26.8776 22.0854 28.443 23.4924 28.6406 25.3586C28.7067 25.9806 29.2281 26.4497 29.8536 26.4497H30.0743C29.9469 27.3475 29.5852 28.1877 29.0076 28.9109C28.7552 29.227 28.8067 29.6879 29.1229 29.9403C29.2579 30.0481 29.4192 30.1005 29.5795 30.1005C29.7945 30.1005 30.0076 30.0061 30.1523 29.8251C30.9273 28.8546 31.4102 27.6772 31.5489 26.4498H31.8149C32.1535 26.4498 32.4799 26.3073 32.7103 26.0589C32.9406 25.8104 33.0582 25.4743 33.0328 25.1365ZM30.0695 24.9848C29.697 22.4815 27.5551 20.6206 24.9998 20.6206C22.4445 20.6206 20.3026 22.4816 19.9301 24.9848H18.4525C18.8338 21.6955 21.6602 19.1557 24.9998 19.1557C28.3395 19.1557 31.1658 21.6956 31.5471 24.9848H30.0695Z" fill="white"/>
<path d="M33.0328 9.5581C32.7179 5.38301 29.1893 2.11259 24.9998 2.11259C20.8104 2.11259 17.2817 5.383 16.9668 9.5582C16.9413 9.89589 17.0589 10.232 17.2894 10.4805C17.5198 10.7289 17.8461 10.8714 18.1848 10.8714H18.4497C18.8154 14.1624 21.6128 16.7305 24.9998 16.7305C28.3868 16.7305 31.1842 14.1624 31.5499 10.8714H31.8149C32.1535 10.8714 32.4799 10.7289 32.7103 10.4805C32.9406 10.232 33.0582 9.8959 33.0328 9.5581ZM24.9998 15.2656C22.4217 15.2656 20.2827 13.3524 19.9261 10.8714H20.1459C20.7714 10.8714 21.2929 10.4023 21.3589 9.78017C21.5566 7.91426 23.1219 6.50713 24.9998 6.50713C26.8777 6.50713 28.4431 7.91426 28.6407 9.78037C28.7067 10.4023 29.2282 10.8714 29.8537 10.8714H30.0735C29.7169 13.3524 27.5779 15.2656 24.9998 15.2656ZM30.8649 9.40654C30.8629 9.40654 30.861 9.40625 30.8592 9.40625C30.8573 9.40625 30.8555 9.40654 30.8535 9.40654H30.0694C29.6967 6.90341 27.555 5.04228 24.9998 5.04228C22.4444 5.04228 20.3026 6.90332 19.9301 9.40654H19.1461C19.1441 9.40654 19.1423 9.40625 19.1404 9.40625C19.1386 9.40625 19.1367 9.40654 19.1348 9.40654H18.4525C18.8338 6.11718 21.6602 3.57744 24.9998 3.57744C28.3395 3.57744 31.1658 6.11718 31.5471 9.40654H30.8649Z" fill="white"/>
<path d="M33.0328 40.7147C32.7179 36.5396 29.1894 33.2692 24.9998 33.2692C20.8103 33.2692 17.2817 36.5396 16.9668 40.7148C16.9413 41.0525 17.0589 41.3887 17.2894 41.6371C17.5198 41.8855 17.8461 42.028 18.1848 42.028H18.4496C18.8151 45.3193 21.6126 47.8877 24.9998 47.8877C28.387 47.8877 31.1845 45.3193 31.55 42.028H31.8148C32.1535 42.028 32.4799 41.8855 32.7102 41.6371C32.9406 41.3887 33.0583 41.0525 33.0328 40.7147ZM24.9998 46.4228C22.4215 46.4228 20.2824 44.5094 19.926 42.028H20.1459C20.7714 42.028 21.2929 41.559 21.3589 40.9368C21.5565 39.0709 23.1219 37.6638 24.9998 37.6638C26.8777 37.6638 28.4431 39.0709 28.6407 40.9369C28.7067 41.559 29.2282 42.028 29.8537 42.028H30.0736C29.7172 44.5094 27.5781 46.4228 24.9998 46.4228ZM30.0694 40.5632C29.6967 38.06 27.555 36.1989 24.9998 36.1989C22.4445 36.1989 20.3026 38.0599 19.9301 40.5632H18.4525C18.8338 37.2738 21.6602 34.7341 24.9998 34.7341C28.3395 34.7341 31.1658 37.2738 31.5471 40.5632H30.0694Z" fill="white"/>
</svg>
