<svg width="50" height="50" viewBox="0 0 50 50" fill="none" xmlns="http://www.w3.org/2000/svg">
<path d="M42.6777 7.32227C37.9558 2.60039 31.6777 0 25 0C19.9189 0 15.0269 1.51709 10.8527 4.38711C10.4083 4.69268 10.2958 5.30068 10.6014 5.74512C10.907 6.18945 11.5148 6.30195 11.9594 5.99648C15.8064 3.35127 20.3158 1.95312 25 1.95312C37.7081 1.95312 48.0469 12.2919 48.0469 25C48.0469 37.7081 37.7081 48.0469 25 48.0469C12.2919 48.0469 1.95312 37.7081 1.95312 25C1.95312 20.3152 3.35117 15.8061 5.996 11.9601C6.30156 11.5156 6.18906 10.9076 5.74473 10.6021C5.30029 10.2966 4.69238 10.4089 4.38672 10.8533C1.51689 15.0265 0 19.9184 0 25C0 31.6777 2.60039 37.9558 7.32227 42.6777C12.0442 47.3996 18.3223 50 25 50C31.6777 50 37.9558 47.3996 42.6777 42.6777C47.3996 37.9558 50 31.6777 50 25C50 18.3223 47.3996 12.0442 42.6777 7.32227Z" fill="white"/>
<path d="M25 45.1172C36.0927 45.1172 45.1172 36.0927 45.1172 25C45.1172 22.695 44.7264 20.4799 44.0095 18.4159C44.0074 18.4105 44.0059 18.405 44.0037 18.3997C41.2659 10.5393 33.7816 4.88281 25 4.88281C13.9074 4.88281 4.88281 13.9073 4.88281 25C4.88281 36.0927 13.9074 45.1172 25 45.1172ZM43.1641 25C43.1641 25.4673 43.1463 25.9306 43.1114 26.3891C42.0863 26.4426 41.087 26.5948 40.1222 26.8353C40.4392 24.1611 40.0403 21.4177 38.98 18.9511C40.106 19.1435 41.2276 19.3591 42.3438 19.5978C42.8768 21.305 43.1641 23.1195 43.1641 25ZM36.6293 18.5838C38.1138 21.276 38.6207 24.4787 38.0434 27.51C33.5857 29.3089 30.1293 33.0816 28.7624 37.7397C26.3184 38.4592 23.6814 38.4592 21.2375 37.7397C19.8707 33.0817 16.4143 29.3089 11.9566 27.5101C11.3793 24.4791 11.8865 21.2757 13.3706 18.5839C17.2217 18.039 21.1131 17.7622 25 17.7622C28.8868 17.7622 32.7781 18.0389 36.6293 18.5838ZM9.87773 26.8353C8.91289 26.5949 7.91367 26.4426 6.88857 26.3891C6.85371 25.9306 6.83594 25.4673 6.83594 25C6.83594 23.1195 7.12324 21.305 7.65615 19.5978C8.77236 19.3591 9.89395 19.1435 11.02 18.9511C9.95986 21.4176 9.56084 24.1613 9.87773 26.8353ZM7.14941 28.3634C14.286 28.9233 19.9219 34.9095 19.9219 42.1875C19.9219 42.2714 19.9203 42.3556 19.9187 42.4397C13.4196 40.5431 8.4167 35.1044 7.14941 28.3634ZM21.8586 42.8914C21.8689 42.6563 21.875 42.4212 21.875 42.1874C21.875 41.4021 21.8166 40.6304 21.7056 39.8755C22.7875 40.1133 23.8936 40.2327 25 40.2327C26.1062 40.2327 27.2124 40.1133 28.2944 39.8755C28.1834 40.6304 28.125 41.4021 28.125 42.1875C28.125 42.4213 28.1311 42.6564 28.1414 42.8915C27.1207 43.0701 26.0712 43.1641 25 43.1641C23.9289 43.1641 22.8794 43.0701 21.8586 42.8914ZM30.0813 42.4397C30.0797 42.3556 30.0781 42.2713 30.0781 42.1875C30.0781 34.9096 35.7141 28.9234 42.8507 28.3635C41.5833 35.1044 36.5804 40.5431 30.0813 42.4397ZM25 6.83594C32.3162 6.83594 38.6352 11.1844 41.5104 17.432C36.0805 16.3559 30.5356 15.8092 24.9999 15.8092C19.4642 15.8092 13.9192 16.356 8.48955 17.4321C11.3648 11.1843 17.6838 6.83594 25 6.83594Z" fill="white"/>
<path d="M20.1172 25C20.1172 27.6924 22.3076 29.8828 25 29.8828C27.6924 29.8828 29.8828 27.6924 29.8828 25C29.8828 22.3076 27.6924 20.1172 25 20.1172C22.3076 20.1172 20.1172 22.3076 20.1172 25ZM25 22.0703C26.6154 22.0703 27.9297 23.3846 27.9297 25C27.9297 26.6154 26.6154 27.9297 25 27.9297C23.3846 27.9297 22.0703 26.6154 22.0703 25C22.0703 23.3846 23.3846 22.0703 25 22.0703Z" fill="white"/>
<path d="M8.01243 8.98955C8.26253 8.98955 8.51262 8.89404 8.70335 8.70332C9.08469 8.32197 9.08469 7.70361 8.70335 7.32227C8.322 6.94092 7.70374 6.94092 7.32229 7.32227L7.3218 7.32275C6.94045 7.7041 6.94065 8.32217 7.322 8.70351C7.51262 8.89434 7.76252 8.98955 8.01243 8.98955Z" fill="white"/>
</svg>
